<?xml version="1.0" encoding="UTF-8"?>
<!DOCTYPE xmeml>
<xmeml version="5">
<sequence id="TH_CN EDIT">
  <uuid>A830DC1B-35BC-448A-9117-606DD359A415</uuid>
  <updatebehavior>add</updatebehavior>
  <name>TH_CN EDIT</name>
  <duration>136547</duration>
  <rate>
    <ntsc>TRUE</ntsc>
    <timebase>24</timebase>
  </rate>
  <timecode>
    <rate>
      <ntsc>TRUE</ntsc>
      <timebase>24</timebase>
    </rate>
    <string>00:59:30:00</string>
    <frame>85680</frame>
    <source>source</source>
    <displayformat>NDF</displayformat>
  </timecode>
  <in>-1</in>
  <out>-1</out>
  <media>
    <video>
      <format>
        <samplecharacteristics>
          <width>1920</width>
          <height>1080</height>
          <anamorphic>FALSE</anamorphic>
          <pixelaspectratio>Square</pixelaspectratio>
          <fielddominance>none</fielddominance>
          <rate>
            <ntsc>TRUE</ntsc>
            <timebase>24</timebase>
          </rate>
          <colordepth>24</colordepth>
          <codec>
            <name>Apple ProRes 422</name>
            <appspecificdata>
              <appname>Final Cut Pro</appname>
              <appmanufacturer>Apple Inc.</appmanufacturer>
              <appversion>7.0</appversion>
              <data>
                <qtcodec>
                  <codecname>Apple ProRes 422</codecname>
                  <codectypename>Apple ProRes 422 (HQ)</codectypename>
                  <codectypecode>apch</codectypecode>
                  <codecvendorcode>appl</codecvendorcode>
                  <spatialquality>1024</spatialquality>
                  <temporalquality>0</temporalquality>
                  <keyframerate>0</keyframerate>
                  <datarate>0</datarate>
                </qtcodec>
              </data>
            </appspecificdata>
          </codec>
        </samplecharacteristics>
        <appspecificdata>
          <appname>Final Cut Pro</appname>
          <appmanufacturer>Apple Inc.</appmanufacturer>
          <appversion>7.0</appversion>
          <data>
            <fcpimageprocessing>
              <useyuv>TRUE</useyuv>
              <usesuperwhite>FALSE</usesuperwhite>
              <rendermode>Float10BPP</rendermode>
            </fcpimageprocessing>
          </data>
        </appspecificdata>
      </format>
      <track>
        <clipitem id="China Bits">
          <name>China Bits</name>
          <duration>18246</duration>
          <rate>
            <ntsc>TRUE</ntsc>
            <timebase>24</timebase>
          </rate>
          <in>0</in>
          <out>96</out>
          <start>0</start>
          <end>96</end>
          <pixelaspectratio>Square</pixelaspectratio>
          <enabled>TRUE</enabled>
          <anamorphic>FALSE</anamorphic>
          <alphatype>none</alphatype>
          <masterclipid>China Bits1</masterclipid>
          <logginginfo>
            <scene/>
            <shottake/>
            <lognote/>
            <good>FALSE</good>
          </logginginfo>
          <labels>
            <label2/>
          </labels>
          <comments>
            <mastercomment1/>
            <mastercomment2/>
            <mastercomment3/>
            <mastercomment4/>
          </comments>
          <file id="HOTTR2_D_2D_HD_LB185_XVYCC_2398_TXT_ENG-ProRes 422HQ 1920X1080 ">
            <name>HOTTR2_D_2D_HD_LB185_XVYCC_2398_TXT_ENG-ProRes 422HQ 1920X1080.mov</name>
            <pathurl>file://localhost/Volumes/PURGATORY/Waystation/SPHE%20General/Audio/%20November%202015/Hotel%20Transylvania%202/China%20version/ENG/HOTTR2_D_2D_HD_LB185_XVYCC_2398_TXT_ENG-ProRes%20422HQ%201920X1080.mov</pathurl>
            <rate>
              <timebase>24</timebase>
              <ntsc>TRUE</ntsc>
            </rate>
            <duration>18246</duration>
            <media>
              <video>
                <duration>18246</duration>
                <samplecharacteristics>
                  <width>1920</width>
                  <height>1080</height>
                </samplecharacteristics>
              </video>
            </media>
          </file>
          <sourcetrack>
            <mediatype>video</mediatype>
          </sourcetrack>
          <fielddominance>none</fielddominance>
          <itemhistory>
            <uuid>624B69AB-EE47-4928-A3CC-267D21D0CC38</uuid>
          </itemhistory>
        </clipitem>
        <clipitem id="Main Feature">
          <name>Main Feature</name>
          <duration>129458</duration>
          <rate>
            <ntsc>TRUE</ntsc>
            <timebase>24</timebase>
          </rate>
          <in>96</in>
          <out>720</out>
          <start>96</start>
          <end>720</end>
          <pixelaspectratio>Square</pixelaspectratio>
          <enabled>TRUE</enabled>
          <anamorphic>FALSE</anamorphic>
          <alphatype>none</alphatype>
          <masterclipid>Main Feature1</masterclipid>
          <logginginfo>
            <scene/>
            <shottake/>
            <lognote/>
            <good>FALSE</good>
          </logginginfo>
          <labels>
            <label2/>
          </labels>
          <comments>
            <mastercomment1/>
            <mastercomment2/>
            <mastercomment3/>
            <mastercomment4/>
          </comments>
          <file id="HOTTR2_D_2D_HD_LB185_XVYCC_2398_TXT_ENG_00-ProRes 422HQ 1920X1080 ">
            <name>HOTTR2_D_2D_HD_LB185_XVYCC_2398_TXT_ENG_00-ProRes 422HQ 1920X1080.mov</name>
            <pathurl>file://localhost/Volumes/PURGATORY/Waystation/SPHE%20General/Audio/%20November%202015/Hotel%20Transylvania%202/China%20version/ENG/HOTTR2_D_2D_HD_LB185_XVYCC_2398_TXT_ENG_00-ProRes%20422HQ%201920X1080.mov</pathurl>
            <rate>
              <timebase>24</timebase>
              <ntsc>TRUE</ntsc>
            </rate>
            <duration>129458</duration>
            <metadata>
              <storage>QuickTime</storage>
              <key>com.apple.quicktime.player.movie.visual.color</key>
              <size>4</size>
              <type>float32</type>
              <value>1</value>
            </metadata>
            <metadata>
              <storage>QuickTime</storage>
              <key>com.apple.quicktime.player.movie.visual.contrast</key>
              <size>4</size>
              <type>float32</type>
              <value>1</value>
            </metadata>
            <metadata>
              <storage>QuickTime</storage>
              <key>com.apple.quicktime.player.version</key>
              <size>13</size>
              <type>UTF8</type>
              <value>7.6.6 (7.6.6)</value>
            </metadata>
            <metadata>
              <storage>QuickTime</storage>
              <key>com.apple.quicktime.player.movie.visual.brightness</key>
              <size>4</size>
              <type>float32</type>
              <value>0</value>
            </metadata>
            <metadata>
              <storage>QuickTime</storage>
              <key>com.apple.quicktime.version</key>
              <size>51</size>
              <type>UTF8</type>
              <value>7.7.3 (2890.7) 0x7738000 (Mac OS X, 10.10.5, 14F27)</value>
            </metadata>
            <metadata>
              <storage>QuickTime</storage>
              <key>com.apple.quicktime.player.movie.visual.tint</key>
              <size>4</size>
              <type>float32</type>
              <value>0</value>
            </metadata>
            <timecode>
              <rate>
                <timebase>24</timebase>
              </rate>
              <string>00:00:00:00</string>
              <frame>0</frame>
              <displayformat>NDF</displayformat>
              <source>source</source>
            </timecode>
            <media>
              <video>
                <duration>129458</duration>
                <samplecharacteristics>
                  <width>1920</width>
                  <height>1080</height>
                </samplecharacteristics>
              </video>
            </media>
          </file>
          <sourcetrack>
            <mediatype>video</mediatype>
          </sourcetrack>
          <fielddominance>none</fielddominance>
          <itemhistory>
            <uuid>3E2C03E7-5972-48D0-81D8-C5D823092188</uuid>
          </itemhistory>
        </clipitem>
        <clipitem id="China Bits2">
          <name>China Bits</name>
          <duration>18246</duration>
          <rate>
            <ntsc>TRUE</ntsc>
            <timebase>24</timebase>
          </rate>
          <in>96</in>
          <out>18151</out>
          <start>720</start>
          <end>18775</end>
          <pixelaspectratio>Square</pixelaspectratio>
          <anamorphic>FALSE</anamorphic>
          <alphatype>none</alphatype>
          <masterclipid>China Bits1</masterclipid>
          <logginginfo>
            <scene/>
            <shottake/>
            <lognote/>
            <good>FALSE</good>
          </logginginfo>
          <labels>
            <label2/>
          </labels>
          <comments>
            <mastercomment1/>
            <mastercomment2/>
            <mastercomment3/>
            <mastercomment4/>
          </comments>
          <file id="HOTTR2_D_2D_HD_LB185_XVYCC_2398_TXT_ENG-ProRes 422HQ 1920X1080 "/>
          <sourcetrack>
            <mediatype>video</mediatype>
          </sourcetrack>
          <fielddominance>none</fielddominance>
          <itemhistory>
            <uuid>4CE4CAC4-67C2-4579-9302-39A4E1F12C48</uuid>
          </itemhistory>
        </clipitem>
        <clipitem id="Main Feature2">
          <name>Main Feature</name>
          <duration>129458</duration>
          <rate>
            <ntsc>TRUE</ntsc>
            <timebase>24</timebase>
          </rate>
          <in>19606</in>
          <out>129112</out>
          <start>18775</start>
          <end>128281</end>
          <pixelaspectratio>Square</pixelaspectratio>
          <enabled>TRUE</enabled>
          <anamorphic>FALSE</anamorphic>
          <alphatype>none</alphatype>
          <masterclipid>Main Feature1</masterclipid>
          <logginginfo>
            <scene/>
            <shottake/>
            <lognote/>
            <good>FALSE</good>
          </logginginfo>
          <labels>
            <label2/>
          </labels>
          <comments>
            <mastercomment1/>
            <mastercomment2/>
            <mastercomment3/>
            <mastercomment4/>
          </comments>
          <file id="HOTTR2_D_2D_HD_LB185_XVYCC_2398_TXT_ENG_00-ProRes 422HQ 1920X1080 "/>
          <sourcetrack>
            <mediatype>video</mediatype>
          </sourcetrack>
          <fielddominance>none</fielddominance>
          <itemhistory>
            <uuid>DA44A702-0A86-4B4F-A5C9-8F0799838AAC</uuid>
          </itemhistory>
        </clipitem>
        <clipitem id="China Bits3">
          <name>China Bits</name>
          <duration>18246</duration>
          <rate>
            <ntsc>TRUE</ntsc>
            <timebase>24</timebase>
          </rate>
          <in>18151</in>
          <out>18246</out>
          <start>128281</start>
          <end>128376</end>
          <pixelaspectratio>Square</pixelaspectratio>
          <anamorphic>FALSE</anamorphic>
          <alphatype>none</alphatype>
          <masterclipid>China Bits1</masterclipid>
          <logginginfo>
            <scene/>
            <shottake/>
            <lognote/>
            <good>FALSE</good>
          </logginginfo>
          <labels>
            <label2/>
          </labels>
          <comments>
            <mastercomment1/>
            <mastercomment2/>
            <mastercomment3/>
            <mastercomment4/>
          </comments>
          <file id="HOTTR2_D_2D_HD_LB185_XVYCC_2398_TXT_ENG-ProRes 422HQ 1920X1080 "/>
          <sourcetrack>
            <mediatype>video</mediatype>
          </sourcetrack>
          <fielddominance>none</fielddominance>
          <itemhistory>
            <uuid>D25F6428-8D94-44A2-8C42-BE22CF008755</uuid>
          </itemhistory>
        </clipitem>
        <clipitem id="Main Feature3">
          <name>Main Feature</name>
          <duration>129458</duration>
          <rate>
            <ntsc>TRUE</ntsc>
            <timebase>24</timebase>
          </rate>
          <in>129088</in>
          <out>129458</out>
          <start>128376</start>
          <end>128746</end>
          <pixelaspectratio>Square</pixelaspectratio>
          <enabled>TRUE</enabled>
          <anamorphic>FALSE</anamorphic>
          <alphatype>none</alphatype>
          <masterclipid>Main Feature1</masterclipid>
          <logginginfo>
            <scene/>
            <shottake/>
            <lognote/>
            <good>FALSE</good>
          </logginginfo>
          <labels>
            <label2/>
          </labels>
          <comments>
            <mastercomment1/>
            <mastercomment2/>
            <mastercomment3/>
            <mastercomment4/>
          </comments>
          <file id="HOTTR2_D_2D_HD_LB185_XVYCC_2398_TXT_ENG_00-ProRes 422HQ 1920X1080 "/>
          <sourcetrack>
            <mediatype>video</mediatype>
          </sourcetrack>
          <fielddominance>none</fielddominance>
          <itemhistory>
            <uuid>2783CF55-DD03-404F-8486-B34E714002EF</uuid>
          </itemhistory>
        </clipitem>
        <clipitem id="Textless">
          <name>Textless</name>
          <duration>8630</duration>
          <rate>
            <ntsc>TRUE</ntsc>
            <timebase>24</timebase>
          </rate>
          <in>0</in>
          <out>168</out>
          <start>128746</start>
          <end>128914</end>
          <pixelaspectratio>Square</pixelaspectratio>
          <anamorphic>FALSE</anamorphic>
          <alphatype>none</alphatype>
          <masterclipid>Textless1</masterclipid>
          <logginginfo>
            <scene/>
            <shottake/>
            <lognote/>
            <good>FALSE</good>
          </logginginfo>
          <labels>
            <label2/>
          </labels>
          <comments>
            <mastercomment1/>
            <mastercomment2/>
            <mastercomment3/>
            <mastercomment4/>
          </comments>
          <file id="HOTTR2_D_2D_HD_LB185_XVYCC_2398_TXT_ENG_01-ProRes 422HQ 1920X1080 ">
            <name>HOTTR2_D_2D_HD_LB185_XVYCC_2398_TXT_ENG_01-ProRes 422HQ 1920X1080.mov</name>
            <pathurl>file://localhost/Volumes/PURGATORY/Waystation/SPHE%20General/Audio/%20November%202015/Hotel%20Transylvania%202/China%20version/ENG/HOTTR2_D_2D_HD_LB185_XVYCC_2398_TXT_ENG_01-ProRes%20422HQ%201920X1080.mov</pathurl>
            <rate>
              <timebase>24</timebase>
              <ntsc>TRUE</ntsc>
            </rate>
            <duration>8630</duration>
            <metadata>
              <storage>QuickTime</storage>
              <key>com.apple.quicktime.player.movie.visual.color</key>
              <size>4</size>
              <type>float32</type>
              <value>1</value>
            </metadata>
            <metadata>
              <storage>QuickTime</storage>
              <key>com.apple.quicktime.player.movie.visual.contrast</key>
              <size>4</size>
              <type>float32</type>
              <value>1</value>
            </metadata>
            <metadata>
              <storage>QuickTime</storage>
              <key>com.apple.quicktime.player.version</key>
              <size>13</size>
              <type>UTF8</type>
              <value>7.6.6 (7.6.6)</value>
            </metadata>
            <metadata>
              <storage>QuickTime</storage>
              <key>com.apple.quicktime.player.movie.visual.brightness</key>
              <size>4</size>
              <type>float32</type>
              <value>0</value>
            </metadata>
            <metadata>
              <storage>QuickTime</storage>
              <key>com.apple.quicktime.version</key>
              <size>51</size>
              <type>UTF8</type>
              <value>7.7.3 (2890.7) 0x7738000 (Mac OS X, 10.10.5, 14F27)</value>
            </metadata>
            <metadata>
              <storage>QuickTime</storage>
              <key>com.apple.quicktime.player.movie.visual.tint</key>
              <size>4</size>
              <type>float32</type>
              <value>0</value>
            </metadata>
            <timecode>
              <rate>
                <timebase>24</timebase>
              </rate>
              <string>00:00:00:00</string>
              <frame>0</frame>
              <displayformat>NDF</displayformat>
              <source>source</source>
            </timecode>
            <media>
              <video>
                <duration>8630</duration>
                <samplecharacteristics>
                  <width>1920</width>
                  <height>1080</height>
                </samplecharacteristics>
              </video>
            </media>
          </file>
          <sourcetrack>
            <mediatype>video</mediatype>
          </sourcetrack>
          <fielddominance>none</fielddominance>
          <itemhistory>
            <uuid>1DC547C3-A36D-4355-B9A2-256E199BF6A7</uuid>
          </itemhistory>
        </clipitem>
        <clipitem id="China Bits4">
          <name>China Bits</name>
          <duration>18246</duration>
          <rate>
            <ntsc>TRUE</ntsc>
            <timebase>24</timebase>
          </rate>
          <in>96</in>
          <out>370</out>
          <start>128914</start>
          <end>129188</end>
          <pixelaspectratio>Square</pixelaspectratio>
          <anamorphic>FALSE</anamorphic>
          <alphatype>none</alphatype>
          <masterclipid>China Bits1</masterclipid>
          <logginginfo>
            <scene/>
            <shottake/>
            <lognote/>
            <good>FALSE</good>
          </logginginfo>
          <labels>
            <label2/>
          </labels>
          <comments>
            <mastercomment1/>
            <mastercomment2/>
            <mastercomment3/>
            <mastercomment4/>
          </comments>
          <file id="HOTTR2_D_2D_HD_LB185_XVYCC_2398_TXT_ENG-ProRes 422HQ 1920X1080 "/>
          <sourcetrack>
            <mediatype>video</mediatype>
          </sourcetrack>
          <fielddominance>none</fielddominance>
          <itemhistory>
            <uuid>5888EA6B-DB62-4823-BF0F-11906E886586</uuid>
          </itemhistory>
        </clipitem>
        <clipitem id="Textless2">
          <name>Textless</name>
          <duration>8630</duration>
          <rate>
            <ntsc>TRUE</ntsc>
            <timebase>24</timebase>
          </rate>
          <in>1273</in>
          <out>8630</out>
          <start>129188</start>
          <end>136545</end>
          <pixelaspectratio>Square</pixelaspectratio>
          <anamorphic>FALSE</anamorphic>
          <alphatype>none</alphatype>
          <masterclipid>Textless1</masterclipid>
          <logginginfo>
            <scene/>
            <shottake/>
            <lognote/>
            <good>FALSE</good>
          </logginginfo>
          <labels>
            <label2/>
          </labels>
          <comments>
            <mastercomment1/>
            <mastercomment2/>
            <mastercomment3/>
            <mastercomment4/>
          </comments>
          <file id="HOTTR2_D_2D_HD_LB185_XVYCC_2398_TXT_ENG_01-ProRes 422HQ 1920X1080 "/>
          <sourcetrack>
            <mediatype>video</mediatype>
          </sourcetrack>
          <fielddominance>none</fielddominance>
          <itemhistory>
            <uuid>4E435A2E-9750-4ACA-B2BA-E34ACDC3BD15</uuid>
          </itemhistory>
        </clipitem>
        <enabled>TRUE</enabled>
        <locked>FALSE</locked>
      </track>
    </video>
    <audio>
      <format>
        <samplecharacteristics>
          <depth>16</depth>
          <samplerate>48000</samplerate>
        </samplecharacteristics>
      </format>
      <outputs>
        <group>
          <index>1</index>
          <numchannels>2</numchannels>
          <downmix>0</downmix>
          <channel>
            <index>1</index>
          </channel>
          <channel>
            <index>2</index>
          </channel>
        </group>
        <group>
          <index>2</index>
          <numchannels>2</numchannels>
          <downmix>0</downmix>
          <channel>
            <index>3</index>
          </channel>
          <channel>
            <index>4</index>
          </channel>
        </group>
        <group>
          <index>3</index>
          <numchannels>1</numchannels>
          <downmix>-3</downmix>
          <channel>
            <index>5</index>
          </channel>
        </group>
        <group>
          <index>4</index>
          <numchannels>1</numchannels>
          <downmix>-3</downmix>
          <channel>
            <index>6</index>
          </channel>
        </group>
        <group>
          <index>5</index>
          <numchannels>1</numchannels>
          <downmix>-3</downmix>
          <channel>
            <index>7</index>
          </channel>
        </group>
        <group>
          <index>6</index>
          <numchannels>1</numchannels>
          <downmix>-3</downmix>
          <channel>
            <index>8</index>
          </channel>
        </group>
        <group>
          <index>7</index>
          <numchannels>1</numchannels>
          <downmix>-3</downmix>
          <channel>
            <index>9</index>
          </channel>
        </group>
        <group>
          <index>8</index>
          <numchannels>1</numchannels>
          <downmix>-3</downmix>
          <channel>
            <index>10</index>
          </channel>
        </group>
        <group>
          <index>9</index>
          <numchannels>2</numchannels>
          <downmix>0</downmix>
          <channel>
            <index>11</index>
          </channel>
          <channel>
            <index>12</index>
          </channel>
        </group>
      </outputs>
      <in>-1</in>
      <out>-1</out>
      <track>
        <clipitem id="HOTTR2_D_2D_HD_LB185_XVYCC_2398_TXT_ENG_ENG_DS.mxf">
          <name>HOTTR2_D_2D_HD_LB185_XVYCC_2398_TXT_ENG_ENG_DS.mxf</name>
          <duration>128281</duration>
          <rate>
            <ntsc>TRUE</ntsc>
            <timebase>24</timebase>
          </rate>
          <in>0</in>
          <out>128281</out>
          <start>0</start>
          <end>128281</end>
          <masterclipid>HOTTR2_D_2D_HD_LB185_XVYCC_2398_TXT_ENG_ENG_DS.mxf1</masterclipid>
          <logginginfo>
            <scene/>
            <shottake/>
            <lognote/>
            <good>FALSE</good>
          </logginginfo>
          <labels>
            <label2/>
          </labels>
          <comments>
            <mastercomment1/>
            <mastercomment2/>
            <mastercomment3/>
            <mastercomment4/>
          </comments>
          <file id="HOTTR2_D_2D_HD_LB185_XVYCC_2398_TXT_ENG_ENG_DS">
            <name>HOTTR2_D_2D_HD_LB185_XVYCC_2398_TXT_ENG_ENG_DS.mxf</name>
            <pathurl>file://localhost/Volumes/PURGATORY/Waystation/SPHE%20General/Audio/%20November%202015/Hotel%20Transylvania%202/China%20version/ENG/HOTTR2_D_2D_HD_LB185_XVYCC_2398_TXT_ENG_ENG_DS.mxf</pathurl>
            <rate>
              <timebase>24</timebase>
              <ntsc>TRUE</ntsc>
            </rate>
            <duration>128281</duration>
            <timecode>
              <rate>
                <timebase>24</timebase>
              </rate>
              <string>00:59:30:00</string>
              <frame>85680</frame>
              <displayformat>NDF</displayformat>
              <source>source</source>
              <reel>
                <name>0x060A2B340101010501010F2013000000ABB0DBBD3A874B90842D37C213D8CA83</name>
              </reel>
            </timecode>
            <timecode>
              <rate>
                <timebase>24</timebase>
              </rate>
              <string>00:59:30:00</string>
              <frame>85680</frame>
              <displayformat>NDF</displayformat>
              <source>aux1</source>
              <reel>
                <name>0x060A2B340101010501010F2013000000ABB0DBBD3A874B90842D37C213D8CA83</name>
              </reel>
            </timecode>
            <media>
              <audio>
                <samplecharacteristics>
                  <samplerate>48000</samplerate>
                  <depth>24</depth>
                </samplecharacteristics>
                <channelcount>2</channelcount>
              </audio>
            </media>
          </file>
          <filter>
            <effect>
              <name>Audio Levels</name>
              <effectid>audiolevels</effectid>
              <effectcategory>audiolevels</effectcategory>
              <effecttype>audiolevels</effecttype>
              <mediatype>audio</mediatype>
              <parameter>
                <name>Level</name>
                <parameterid>level</parameterid>
                <valuemin>0</valuemin>
                <valuemax>3.98109</valuemax>
                <value>1</value>
              </parameter>
            </effect>
          </filter>
          <filter>
            <effect>
              <name>Audio Pan</name>
              <effectid>audiopan</effectid>
              <effectcategory>audiopan</effectcategory>
              <effecttype>audiopan</effecttype>
              <mediatype>audio</mediatype>
              <parameter>
                <name>Pan</name>
                <parameterid>pan</parameterid>
                <valuemin>-1</valuemin>
                <valuemax>1</valuemax>
                <value>-1</value>
              </parameter>
            </effect>
          </filter>
          <sourcetrack>
            <mediatype>audio</mediatype>
            <trackindex>1</trackindex>
          </sourcetrack>
          <link>
            <linkclipref>HOTTR2_D_2D_HD_LB185_XVYCC_2398_TXT_ENG_ENG_DS.mxf</linkclipref>
            <mediatype>audio</mediatype>
            <trackindex>1</trackindex>
            <clipindex>1</clipindex>
            <groupindex>1</groupindex>
          </link>
          <link>
            <linkclipref>HOTTR2_D_2D_HD_LB185_XVYCC_2398_TXT_ENG_ENG_DS.mxf2</linkclipref>
            <mediatype>audio</mediatype>
            <trackindex>2</trackindex>
            <clipindex>1</clipindex>
            <groupindex>1</groupindex>
          </link>
          <itemhistory>
            <uuid>0A41E7B3-EBA9-4966-A2FC-09E501AA713A</uuid>
          </itemhistory>
        </clipitem>
        <clipitem id="HOTTR2_D_2D_HD_LB185_XVYCC_2398_TXT_ENG_ENG_DS_002.mxf">
          <name>HOTTR2_D_2D_HD_LB185_XVYCC_2398_TXT_ENG_ENG_DS_002.mxf</name>
          <duration>120</duration>
          <rate>
            <ntsc>TRUE</ntsc>
            <timebase>24</timebase>
          </rate>
          <in>0</in>
          <out>120</out>
          <start>128281</start>
          <end>128401</end>
          <masterclipid>HOTTR2_D_2D_HD_LB185_XVYCC_2398_TXT_ENG_ENG_DS_002.mxf1</masterclipid>
          <logginginfo>
            <scene/>
            <shottake/>
            <lognote/>
            <good>FALSE</good>
          </logginginfo>
          <labels>
            <label2/>
          </labels>
          <comments>
            <mastercomment1/>
            <mastercomment2/>
            <mastercomment3/>
            <mastercomment4/>
          </comments>
          <file id="HOTTR2_D_2D_HD_LB185_XVYCC_2398_TXT_ENG_ENG_DS_002 ">
            <name>HOTTR2_D_2D_HD_LB185_XVYCC_2398_TXT_ENG_ENG_DS_002.mxf</name>
            <pathurl>file://localhost/Volumes/PURGATORY/Waystation/SPHE%20General/Audio/%20November%202015/Hotel%20Transylvania%202/China%20version/ENG/HOTTR2_D_2D_HD_LB185_XVYCC_2398_TXT_ENG_ENG_DS_002.mxf</pathurl>
            <rate>
              <timebase>24</timebase>
              <ntsc>TRUE</ntsc>
            </rate>
            <duration>120</duration>
            <timecode>
              <rate>
                <timebase>24</timebase>
              </rate>
              <string>02:28:35:01</string>
              <frame>213961</frame>
              <displayformat>NDF</displayformat>
              <source>source</source>
              <reel>
                <name>0x060A2B340101010501010F20130000004D5FF67DB1064E20836E1096D7900954</name>
              </reel>
            </timecode>
            <timecode>
              <rate>
                <timebase>24</timebase>
              </rate>
              <string>02:28:35:01</string>
              <frame>213961</frame>
              <displayformat>NDF</displayformat>
              <source>aux1</source>
              <reel>
                <name>0x060A2B340101010501010F20130000004D5FF67DB1064E20836E1096D7900954</name>
              </reel>
            </timecode>
            <media>
              <audio>
                <samplecharacteristics>
                  <samplerate>48000</samplerate>
                  <depth>24</depth>
                </samplecharacteristics>
                <channelcount>2</channelcount>
              </audio>
            </media>
          </file>
          <filter>
            <effect>
              <name>Audio Levels</name>
              <effectid>audiolevels</effectid>
              <effectcategory>audiolevels</effectcategory>
              <effecttype>audiolevels</effecttype>
              <mediatype>audio</mediatype>
              <parameter>
                <name>Level</name>
                <parameterid>level</parameterid>
                <valuemin>0</valuemin>
                <valuemax>3.98109</valuemax>
                <value>1</value>
              </parameter>
            </effect>
          </filter>
          <filter>
            <effect>
              <name>Audio Pan</name>
              <effectid>audiopan</effectid>
              <effectcategory>audiopan</effectcategory>
              <effecttype>audiopan</effecttype>
              <mediatype>audio</mediatype>
              <parameter>
                <name>Pan</name>
                <parameterid>pan</parameterid>
                <valuemin>-1</valuemin>
                <valuemax>1</valuemax>
                <value>-1</value>
              </parameter>
            </effect>
          </filter>
          <sourcetrack>
            <mediatype>audio</mediatype>
            <trackindex>1</trackindex>
          </sourcetrack>
          <link>
            <linkclipref>HOTTR2_D_2D_HD_LB185_XVYCC_2398_TXT_ENG_ENG_DS_002.mxf</linkclipref>
            <mediatype>audio</mediatype>
            <trackindex>1</trackindex>
            <clipindex>2</clipindex>
            <groupindex>1</groupindex>
          </link>
          <link>
            <linkclipref>HOTTR2_D_2D_HD_LB185_XVYCC_2398_TXT_ENG_ENG_DS_002.mxf2</linkclipref>
            <mediatype>audio</mediatype>
            <trackindex>2</trackindex>
            <clipindex>2</clipindex>
            <groupindex>1</groupindex>
          </link>
          <itemhistory>
            <uuid>FB2D55C2-232D-4534-8F9E-1586674787CA</uuid>
          </itemhistory>
        </clipitem>
        <clipitem id="HOTTR2_D_2D_HD_LB185_XVYCC_2398_TXT_ENG_ENG_DS_003.mxf">
          <name>HOTTR2_D_2D_HD_LB185_XVYCC_2398_TXT_ENG_ENG_DS_003.mxf</name>
          <duration>8146</duration>
          <rate>
            <ntsc>TRUE</ntsc>
            <timebase>24</timebase>
          </rate>
          <in>0</in>
          <out>8146</out>
          <start>128401</start>
          <end>136547</end>
          <masterclipid>HOTTR2_D_2D_HD_LB185_XVYCC_2398_TXT_ENG_ENG_DS_003.mxf1</masterclipid>
          <logginginfo>
            <scene/>
            <shottake/>
            <lognote/>
            <good>FALSE</good>
          </logginginfo>
          <labels>
            <label2/>
          </labels>
          <comments>
            <mastercomment1/>
            <mastercomment2/>
            <mastercomment3/>
            <mastercomment4/>
          </comments>
          <file id="HOTTR2_D_2D_HD_LB185_XVYCC_2398_TXT_ENG_ENG_DS_003 ">
            <name>HOTTR2_D_2D_HD_LB185_XVYCC_2398_TXT_ENG_ENG_DS_003.mxf</name>
            <pathurl>file://localhost/Volumes/PURGATORY/Waystation/SPHE%20General/Audio/%20November%202015/Hotel%20Transylvania%202/China%20version/ENG/HOTTR2_D_2D_HD_LB185_XVYCC_2398_TXT_ENG_ENG_DS_003.mxf</pathurl>
            <rate>
              <timebase>24</timebase>
              <ntsc>TRUE</ntsc>
            </rate>
            <duration>8146</duration>
            <timecode>
              <rate>
                <timebase>24</timebase>
              </rate>
              <string>02:28:40:01</string>
              <frame>214081</frame>
              <displayformat>NDF</displayformat>
              <source>source</source>
              <reel>
                <name>0x060A2B340101010501010F201300000003F3818A2C514681B976DC6D50CC19D3</name>
              </reel>
            </timecode>
            <timecode>
              <rate>
                <timebase>24</timebase>
              </rate>
              <string>02:28:40:01</string>
              <frame>214081</frame>
              <displayformat>NDF</displayformat>
              <source>aux1</source>
              <reel>
                <name>0x060A2B340101010501010F201300000003F3818A2C514681B976DC6D50CC19D3</name>
              </reel>
            </timecode>
            <media>
              <audio>
                <samplecharacteristics>
                  <samplerate>48000</samplerate>
                  <depth>24</depth>
                </samplecharacteristics>
                <channelcount>2</channelcount>
              </audio>
            </media>
          </file>
          <filter>
            <effect>
              <name>Audio Levels</name>
              <effectid>audiolevels</effectid>
              <effectcategory>audiolevels</effectcategory>
              <effecttype>audiolevels</effecttype>
              <mediatype>audio</mediatype>
              <parameter>
                <name>Level</name>
                <parameterid>level</parameterid>
                <valuemin>0</valuemin>
                <valuemax>3.98109</valuemax>
                <value>1</value>
              </parameter>
            </effect>
          </filter>
          <filter>
            <effect>
              <name>Audio Pan</name>
              <effectid>audiopan</effectid>
              <effectcategory>audiopan</effectcategory>
              <effecttype>audiopan</effecttype>
              <mediatype>audio</mediatype>
              <parameter>
                <name>Pan</name>
                <parameterid>pan</parameterid>
                <valuemin>-1</valuemin>
                <valuemax>1</valuemax>
                <value>-1</value>
              </parameter>
            </effect>
          </filter>
          <sourcetrack>
            <mediatype>audio</mediatype>
            <trackindex>1</trackindex>
          </sourcetrack>
          <link>
            <linkclipref>HOTTR2_D_2D_HD_LB185_XVYCC_2398_TXT_ENG_ENG_DS_003.mxf</linkclipref>
            <mediatype>audio</mediatype>
            <trackindex>1</trackindex>
            <clipindex>3</clipindex>
            <groupindex>1</groupindex>
          </link>
          <link>
            <linkclipref>HOTTR2_D_2D_HD_LB185_XVYCC_2398_TXT_ENG_ENG_DS_003.mxf2</linkclipref>
            <mediatype>audio</mediatype>
            <trackindex>2</trackindex>
            <clipindex>3</clipindex>
            <groupindex>1</groupindex>
          </link>
          <itemhistory>
            <uuid>EFF5A7EE-918B-433D-89B3-C516828ED0F9</uuid>
          </itemhistory>
        </clipitem>
        <enabled>TRUE</enabled>
        <locked>FALSE</locked>
        <outputchannelindex>1</outputchannelindex>
      </track>
      <track>
        <clipitem id="HOTTR2_D_2D_HD_LB185_XVYCC_2398_TXT_ENG_ENG_DS.mxf2">
          <name>HOTTR2_D_2D_HD_LB185_XVYCC_2398_TXT_ENG_ENG_DS.mxf</name>
          <duration>128281</duration>
          <rate>
            <ntsc>TRUE</ntsc>
            <timebase>24</timebase>
          </rate>
          <in>0</in>
          <out>128281</out>
          <start>0</start>
          <end>128281</end>
          <masterclipid>HOTTR2_D_2D_HD_LB185_XVYCC_2398_TXT_ENG_ENG_DS.mxf1</masterclipid>
          <logginginfo>
            <scene/>
            <shottake/>
            <lognote/>
            <good>FALSE</good>
          </logginginfo>
          <labels>
            <label2/>
          </labels>
          <comments>
            <mastercomment1/>
            <mastercomment2/>
            <mastercomment3/>
            <mastercomment4/>
          </comments>
          <file id="HOTTR2_D_2D_HD_LB185_XVYCC_2398_TXT_ENG_ENG_DS"/>
          <filter>
            <effect>
              <name>Audio Levels</name>
              <effectid>audiolevels</effectid>
              <effectcategory>audiolevels</effectcategory>
              <effecttype>audiolevels</effecttype>
              <mediatype>audio</mediatype>
              <parameter>
                <name>Level</name>
                <parameterid>level</parameterid>
                <valuemin>0</valuemin>
                <valuemax>3.98109</valuemax>
                <value>1</value>
              </parameter>
            </effect>
          </filter>
          <filter>
            <effect>
              <name>Audio Pan</name>
              <effectid>audiopan</effectid>
              <effectcategory>audiopan</effectcategory>
              <effecttype>audiopan</effecttype>
              <mediatype>audio</mediatype>
              <parameter>
                <name>Pan</name>
                <parameterid>pan</parameterid>
                <valuemin>-1</valuemin>
                <valuemax>1</valuemax>
                <value>1</value>
              </parameter>
            </effect>
          </filter>
          <sourcetrack>
            <mediatype>audio</mediatype>
            <trackindex>2</trackindex>
          </sourcetrack>
          <link>
            <linkclipref>HOTTR2_D_2D_HD_LB185_XVYCC_2398_TXT_ENG_ENG_DS.mxf</linkclipref>
            <mediatype>audio</mediatype>
            <trackindex>1</trackindex>
            <clipindex>1</clipindex>
            <groupindex>1</groupindex>
          </link>
          <link>
            <linkclipref>HOTTR2_D_2D_HD_LB185_XVYCC_2398_TXT_ENG_ENG_DS.mxf2</linkclipref>
            <mediatype>audio</mediatype>
            <trackindex>2</trackindex>
            <clipindex>1</clipindex>
            <groupindex>1</groupindex>
          </link>
          <itemhistory>
            <uuid>6A177011-39DA-472C-855C-90FD316CF888</uuid>
          </itemhistory>
        </clipitem>
        <clipitem id="HOTTR2_D_2D_HD_LB185_XVYCC_2398_TXT_ENG_ENG_DS_002.mxf2">
          <name>HOTTR2_D_2D_HD_LB185_XVYCC_2398_TXT_ENG_ENG_DS_002.mxf</name>
          <duration>120</duration>
          <rate>
            <ntsc>TRUE</ntsc>
            <timebase>24</timebase>
          </rate>
          <in>0</in>
          <out>120</out>
          <start>128281</start>
          <end>128401</end>
          <masterclipid>HOTTR2_D_2D_HD_LB185_XVYCC_2398_TXT_ENG_ENG_DS_002.mxf1</masterclipid>
          <logginginfo>
            <scene/>
            <shottake/>
            <lognote/>
            <good>FALSE</good>
          </logginginfo>
          <labels>
            <label2/>
          </labels>
          <comments>
            <mastercomment1/>
            <mastercomment2/>
            <mastercomment3/>
            <mastercomment4/>
          </comments>
          <file id="HOTTR2_D_2D_HD_LB185_XVYCC_2398_TXT_ENG_ENG_DS_002 "/>
          <filter>
            <effect>
              <name>Audio Levels</name>
              <effectid>audiolevels</effectid>
              <effectcategory>audiolevels</effectcategory>
              <effecttype>audiolevels</effecttype>
              <mediatype>audio</mediatype>
              <parameter>
                <name>Level</name>
                <parameterid>level</parameterid>
                <valuemin>0</valuemin>
                <valuemax>3.98109</valuemax>
                <value>1</value>
              </parameter>
            </effect>
          </filter>
          <filter>
            <effect>
              <name>Audio Pan</name>
              <effectid>audiopan</effectid>
              <effectcategory>audiopan</effectcategory>
              <effecttype>audiopan</effecttype>
              <mediatype>audio</mediatype>
              <parameter>
                <name>Pan</name>
                <parameterid>pan</parameterid>
                <valuemin>-1</valuemin>
                <valuemax>1</valuemax>
                <value>1</value>
              </parameter>
            </effect>
          </filter>
          <sourcetrack>
            <mediatype>audio</mediatype>
            <trackindex>2</trackindex>
          </sourcetrack>
          <link>
            <linkclipref>HOTTR2_D_2D_HD_LB185_XVYCC_2398_TXT_ENG_ENG_DS_002.mxf</linkclipref>
            <mediatype>audio</mediatype>
            <trackindex>1</trackindex>
            <clipindex>2</clipindex>
            <groupindex>1</groupindex>
          </link>
          <link>
            <linkclipref>HOTTR2_D_2D_HD_LB185_XVYCC_2398_TXT_ENG_ENG_DS_002.mxf2</linkclipref>
            <mediatype>audio</mediatype>
            <trackindex>2</trackindex>
            <clipindex>2</clipindex>
            <groupindex>1</groupindex>
          </link>
          <itemhistory>
            <uuid>ED2D7961-5C04-4A26-8306-D954469FEDAA</uuid>
          </itemhistory>
        </clipitem>
        <clipitem id="HOTTR2_D_2D_HD_LB185_XVYCC_2398_TXT_ENG_ENG_DS_003.mxf2">
          <name>HOTTR2_D_2D_HD_LB185_XVYCC_2398_TXT_ENG_ENG_DS_003.mxf</name>
          <duration>8146</duration>
          <rate>
            <ntsc>TRUE</ntsc>
            <timebase>24</timebase>
          </rate>
          <in>0</in>
          <out>8146</out>
          <start>128401</start>
          <end>136547</end>
          <masterclipid>HOTTR2_D_2D_HD_LB185_XVYCC_2398_TXT_ENG_ENG_DS_003.mxf1</masterclipid>
          <logginginfo>
            <scene/>
            <shottake/>
            <lognote/>
            <good>FALSE</good>
          </logginginfo>
          <labels>
            <label2/>
          </labels>
          <comments>
            <mastercomment1/>
            <mastercomment2/>
            <mastercomment3/>
            <mastercomment4/>
          </comments>
          <file id="HOTTR2_D_2D_HD_LB185_XVYCC_2398_TXT_ENG_ENG_DS_003 "/>
          <filter>
            <effect>
              <name>Audio Levels</name>
              <effectid>audiolevels</effectid>
              <effectcategory>audiolevels</effectcategory>
              <effecttype>audiolevels</effecttype>
              <mediatype>audio</mediatype>
              <parameter>
                <name>Level</name>
                <parameterid>level</parameterid>
                <valuemin>0</valuemin>
                <valuemax>3.98109</valuemax>
                <value>1</value>
              </parameter>
            </effect>
          </filter>
          <filter>
            <effect>
              <name>Audio Pan</name>
              <effectid>audiopan</effectid>
              <effectcategory>audiopan</effectcategory>
              <effecttype>audiopan</effecttype>
              <mediatype>audio</mediatype>
              <parameter>
                <name>Pan</name>
                <parameterid>pan</parameterid>
                <valuemin>-1</valuemin>
                <valuemax>1</valuemax>
                <value>1</value>
              </parameter>
            </effect>
          </filter>
          <sourcetrack>
            <mediatype>audio</mediatype>
            <trackindex>2</trackindex>
          </sourcetrack>
          <link>
            <linkclipref>HOTTR2_D_2D_HD_LB185_XVYCC_2398_TXT_ENG_ENG_DS_003.mxf</linkclipref>
            <mediatype>audio</mediatype>
            <trackindex>1</trackindex>
            <clipindex>3</clipindex>
            <groupindex>1</groupindex>
          </link>
          <link>
            <linkclipref>HOTTR2_D_2D_HD_LB185_XVYCC_2398_TXT_ENG_ENG_DS_003.mxf2</linkclipref>
            <mediatype>audio</mediatype>
            <trackindex>2</trackindex>
            <clipindex>3</clipindex>
            <groupindex>1</groupindex>
          </link>
          <itemhistory>
            <uuid>1EAEED93-E071-4129-A4E2-25EEF34F5071</uuid>
          </itemhistory>
        </clipitem>
        <enabled>TRUE</enabled>
        <locked>FALSE</locked>
        <outputchannelindex>2</outputchannelindex>
      </track>
      <track>
        <clipitem id="HOTTR2_D_2D_HD_LB185_XVYCC_2398_TXT_ENG_ME_DS.mxf">
          <name>HOTTR2_D_2D_HD_LB185_XVYCC_2398_TXT_ENG_ME_DS.mxf</name>
          <duration>128281</duration>
          <rate>
            <ntsc>TRUE</ntsc>
            <timebase>24</timebase>
          </rate>
          <in>0</in>
          <out>128281</out>
          <start>0</start>
          <end>128281</end>
          <masterclipid>HOTTR2_D_2D_HD_LB185_XVYCC_2398_TXT_ENG_ME_DS.mxf1</masterclipid>
          <logginginfo>
            <scene/>
            <shottake/>
            <lognote/>
            <good>FALSE</good>
          </logginginfo>
          <labels>
            <label2/>
          </labels>
          <comments>
            <mastercomment1/>
            <mastercomment2/>
            <mastercomment3/>
            <mastercomment4/>
          </comments>
          <file id="HOTTR2_D_2D_HD_LB185_XVYCC_2398_TXT_ENG_ME_DS">
            <name>HOTTR2_D_2D_HD_LB185_XVYCC_2398_TXT_ENG_ME_DS.mxf</name>
            <pathurl>file://localhost/Volumes/PURGATORY/Waystation/SPHE%20General/Audio/%20November%202015/Hotel%20Transylvania%202/China%20version/ENG/HOTTR2_D_2D_HD_LB185_XVYCC_2398_TXT_ENG_ME_DS.mxf</pathurl>
            <rate>
              <timebase>24</timebase>
              <ntsc>TRUE</ntsc>
            </rate>
            <duration>128281</duration>
            <timecode>
              <rate>
                <timebase>24</timebase>
              </rate>
              <string>00:59:30:00</string>
              <frame>85680</frame>
              <displayformat>NDF</displayformat>
              <source>source</source>
              <reel>
                <name>0x060A2B340101010501010F20130000005D9E4F9FACDE465D90093D8F91768F2A</name>
              </reel>
            </timecode>
            <timecode>
              <rate>
                <timebase>24</timebase>
              </rate>
              <string>00:59:30:00</string>
              <frame>85680</frame>
              <displayformat>NDF</displayformat>
              <source>aux1</source>
              <reel>
                <name>0x060A2B340101010501010F20130000005D9E4F9FACDE465D90093D8F91768F2A</name>
              </reel>
            </timecode>
            <media>
              <audio>
                <samplecharacteristics>
                  <samplerate>48000</samplerate>
                  <depth>24</depth>
                </samplecharacteristics>
                <channelcount>2</channelcount>
              </audio>
            </media>
          </file>
          <filter>
            <effect>
              <name>Audio Levels</name>
              <effectid>audiolevels</effectid>
              <effectcategory>audiolevels</effectcategory>
              <effecttype>audiolevels</effecttype>
              <mediatype>audio</mediatype>
              <parameter>
                <name>Level</name>
                <parameterid>level</parameterid>
                <valuemin>0</valuemin>
                <valuemax>3.98109</valuemax>
                <value>1</value>
              </parameter>
            </effect>
          </filter>
          <filter>
            <effect>
              <name>Audio Pan</name>
              <effectid>audiopan</effectid>
              <effectcategory>audiopan</effectcategory>
              <effecttype>audiopan</effecttype>
              <mediatype>audio</mediatype>
              <parameter>
                <name>Pan</name>
                <parameterid>pan</parameterid>
                <valuemin>-1</valuemin>
                <valuemax>1</valuemax>
                <value>-1</value>
              </parameter>
            </effect>
          </filter>
          <sourcetrack>
            <mediatype>audio</mediatype>
            <trackindex>1</trackindex>
          </sourcetrack>
          <link>
            <linkclipref>HOTTR2_D_2D_HD_LB185_XVYCC_2398_TXT_ENG_ME_DS.mxf</linkclipref>
            <mediatype>audio</mediatype>
            <trackindex>3</trackindex>
            <clipindex>1</clipindex>
            <groupindex>1</groupindex>
          </link>
          <link>
            <linkclipref>HOTTR2_D_2D_HD_LB185_XVYCC_2398_TXT_ENG_ME_DS.mxf2</linkclipref>
            <mediatype>audio</mediatype>
            <trackindex>4</trackindex>
            <clipindex>1</clipindex>
            <groupindex>1</groupindex>
          </link>
          <itemhistory>
            <uuid>63F44258-EAA3-4E02-970F-D5D49797F133</uuid>
          </itemhistory>
        </clipitem>
        <clipitem id="HOTTR2_D_2D_HD_LB185_XVYCC_2398_TXT_ENG_ME_DS_002.mxf">
          <name>HOTTR2_D_2D_HD_LB185_XVYCC_2398_TXT_ENG_ME_DS_002.mxf</name>
          <duration>120</duration>
          <rate>
            <ntsc>TRUE</ntsc>
            <timebase>24</timebase>
          </rate>
          <in>0</in>
          <out>120</out>
          <start>128281</start>
          <end>128401</end>
          <masterclipid>HOTTR2_D_2D_HD_LB185_XVYCC_2398_TXT_ENG_ME_DS_002.mxf1</masterclipid>
          <logginginfo>
            <scene/>
            <shottake/>
            <lognote/>
            <good>FALSE</good>
          </logginginfo>
          <labels>
            <label2/>
          </labels>
          <comments>
            <mastercomment1/>
            <mastercomment2/>
            <mastercomment3/>
            <mastercomment4/>
          </comments>
          <file id="HOTTR2_D_2D_HD_LB185_XVYCC_2398_TXT_ENG_ME_DS_002 ">
            <name>HOTTR2_D_2D_HD_LB185_XVYCC_2398_TXT_ENG_ME_DS_002.mxf</name>
            <pathurl>file://localhost/Volumes/PURGATORY/Waystation/SPHE%20General/Audio/%20November%202015/Hotel%20Transylvania%202/China%20version/ENG/HOTTR2_D_2D_HD_LB185_XVYCC_2398_TXT_ENG_ME_DS_002.mxf</pathurl>
            <rate>
              <timebase>24</timebase>
              <ntsc>TRUE</ntsc>
            </rate>
            <duration>120</duration>
            <timecode>
              <rate>
                <timebase>24</timebase>
              </rate>
              <string>02:28:35:01</string>
              <frame>213961</frame>
              <displayformat>NDF</displayformat>
              <source>source</source>
              <reel>
                <name>0x060A2B340101010501010F20130000007F554CD1E6CB4C26BF4F3B93145C78AB</name>
              </reel>
            </timecode>
            <timecode>
              <rate>
                <timebase>24</timebase>
              </rate>
              <string>02:28:35:01</string>
              <frame>213961</frame>
              <displayformat>NDF</displayformat>
              <source>aux1</source>
              <reel>
                <name>0x060A2B340101010501010F20130000007F554CD1E6CB4C26BF4F3B93145C78AB</name>
              </reel>
            </timecode>
            <media>
              <audio>
                <samplecharacteristics>
                  <samplerate>48000</samplerate>
                  <depth>24</depth>
                </samplecharacteristics>
                <channelcount>2</channelcount>
              </audio>
            </media>
          </file>
          <filter>
            <effect>
              <name>Audio Levels</name>
              <effectid>audiolevels</effectid>
              <effectcategory>audiolevels</effectcategory>
              <effecttype>audiolevels</effecttype>
              <mediatype>audio</mediatype>
              <parameter>
                <name>Level</name>
                <parameterid>level</parameterid>
                <valuemin>0</valuemin>
                <valuemax>3.98109</valuemax>
                <value>1</value>
              </parameter>
            </effect>
          </filter>
          <filter>
            <effect>
              <name>Audio Pan</name>
              <effectid>audiopan</effectid>
              <effectcategory>audiopan</effectcategory>
              <effecttype>audiopan</effecttype>
              <mediatype>audio</mediatype>
              <parameter>
                <name>Pan</name>
                <parameterid>pan</parameterid>
                <valuemin>-1</valuemin>
                <valuemax>1</valuemax>
                <value>-1</value>
              </parameter>
            </effect>
          </filter>
          <sourcetrack>
            <mediatype>audio</mediatype>
            <trackindex>1</trackindex>
          </sourcetrack>
          <link>
            <linkclipref>HOTTR2_D_2D_HD_LB185_XVYCC_2398_TXT_ENG_ME_DS_002.mxf</linkclipref>
            <mediatype>audio</mediatype>
            <trackindex>3</trackindex>
            <clipindex>2</clipindex>
            <groupindex>1</groupindex>
          </link>
          <link>
            <linkclipref>HOTTR2_D_2D_HD_LB185_XVYCC_2398_TXT_ENG_ME_DS_002.mxf2</linkclipref>
            <mediatype>audio</mediatype>
            <trackindex>4</trackindex>
            <clipindex>2</clipindex>
            <groupindex>1</groupindex>
          </link>
          <itemhistory>
            <uuid>AB97EF28-18E1-44D7-9151-D58D39E681DB</uuid>
          </itemhistory>
        </clipitem>
        <clipitem id="HOTTR2_D_2D_HD_LB185_XVYCC_2398_TXT_ENG_ME_DS_003.mxf">
          <name>HOTTR2_D_2D_HD_LB185_XVYCC_2398_TXT_ENG_ME_DS_003.mxf</name>
          <duration>8146</duration>
          <rate>
            <ntsc>TRUE</ntsc>
            <timebase>24</timebase>
          </rate>
          <in>0</in>
          <out>8146</out>
          <start>128401</start>
          <end>136547</end>
          <masterclipid>HOTTR2_D_2D_HD_LB185_XVYCC_2398_TXT_ENG_ME_DS_003.mxf1</masterclipid>
          <logginginfo>
            <scene/>
            <shottake/>
            <lognote/>
            <good>FALSE</good>
          </logginginfo>
          <labels>
            <label2/>
          </labels>
          <comments>
            <mastercomment1/>
            <mastercomment2/>
            <mastercomment3/>
            <mastercomment4/>
          </comments>
          <file id="HOTTR2_D_2D_HD_LB185_XVYCC_2398_TXT_ENG_ME_DS_003 ">
            <name>HOTTR2_D_2D_HD_LB185_XVYCC_2398_TXT_ENG_ME_DS_003.mxf</name>
            <pathurl>file://localhost/Volumes/PURGATORY/Waystation/SPHE%20General/Audio/%20November%202015/Hotel%20Transylvania%202/China%20version/ENG/HOTTR2_D_2D_HD_LB185_XVYCC_2398_TXT_ENG_ME_DS_003.mxf</pathurl>
            <rate>
              <timebase>24</timebase>
              <ntsc>TRUE</ntsc>
            </rate>
            <duration>8146</duration>
            <timecode>
              <rate>
                <timebase>24</timebase>
              </rate>
              <string>02:28:40:01</string>
              <frame>214081</frame>
              <displayformat>NDF</displayformat>
              <source>source</source>
              <reel>
                <name>0x060A2B340101010501010F2013000000DFD2C6721C8D498991301E50E1351CD6</name>
              </reel>
            </timecode>
            <timecode>
              <rate>
                <timebase>24</timebase>
              </rate>
              <string>02:28:40:01</string>
              <frame>214081</frame>
              <displayformat>NDF</displayformat>
              <source>aux1</source>
              <reel>
                <name>0x060A2B340101010501010F2013000000DFD2C6721C8D498991301E50E1351CD6</name>
              </reel>
            </timecode>
            <media>
              <audio>
                <samplecharacteristics>
                  <samplerate>48000</samplerate>
                  <depth>24</depth>
                </samplecharacteristics>
                <channelcount>2</channelcount>
              </audio>
            </media>
          </file>
          <filter>
            <effect>
              <name>Audio Levels</name>
              <effectid>audiolevels</effectid>
              <effectcategory>audiolevels</effectcategory>
              <effecttype>audiolevels</effecttype>
              <mediatype>audio</mediatype>
              <parameter>
                <name>Level</name>
                <parameterid>level</parameterid>
                <valuemin>0</valuemin>
                <valuemax>3.98109</valuemax>
                <value>1</value>
              </parameter>
            </effect>
          </filter>
          <filter>
            <effect>
              <name>Audio Pan</name>
              <effectid>audiopan</effectid>
              <effectcategory>audiopan</effectcategory>
              <effecttype>audiopan</effecttype>
              <mediatype>audio</mediatype>
              <parameter>
                <name>Pan</name>
                <parameterid>pan</parameterid>
                <valuemin>-1</valuemin>
                <valuemax>1</valuemax>
                <value>-1</value>
              </parameter>
            </effect>
          </filter>
          <sourcetrack>
            <mediatype>audio</mediatype>
            <trackindex>1</trackindex>
          </sourcetrack>
          <link>
            <linkclipref>HOTTR2_D_2D_HD_LB185_XVYCC_2398_TXT_ENG_ME_DS_003.mxf</linkclipref>
            <mediatype>audio</mediatype>
            <trackindex>3</trackindex>
            <clipindex>3</clipindex>
            <groupindex>1</groupindex>
          </link>
          <link>
            <linkclipref>HOTTR2_D_2D_HD_LB185_XVYCC_2398_TXT_ENG_ME_DS_003.mxf2</linkclipref>
            <mediatype>audio</mediatype>
            <trackindex>4</trackindex>
            <clipindex>3</clipindex>
            <groupindex>1</groupindex>
          </link>
          <itemhistory>
            <uuid>3E8FEB49-AE1F-483C-9D35-96E1CD8FCD73</uuid>
          </itemhistory>
        </clipitem>
        <enabled>TRUE</enabled>
        <locked>FALSE</locked>
        <outputchannelindex>3</outputchannelindex>
      </track>
      <track>
        <clipitem id="HOTTR2_D_2D_HD_LB185_XVYCC_2398_TXT_ENG_ME_DS.mxf2">
          <name>HOTTR2_D_2D_HD_LB185_XVYCC_2398_TXT_ENG_ME_DS.mxf</name>
          <duration>128281</duration>
          <rate>
            <ntsc>TRUE</ntsc>
            <timebase>24</timebase>
          </rate>
          <in>0</in>
          <out>128281</out>
          <start>0</start>
          <end>128281</end>
          <masterclipid>HOTTR2_D_2D_HD_LB185_XVYCC_2398_TXT_ENG_ME_DS.mxf1</masterclipid>
          <logginginfo>
            <scene/>
            <shottake/>
            <lognote/>
            <good>FALSE</good>
          </logginginfo>
          <labels>
            <label2/>
          </labels>
          <comments>
            <mastercomment1/>
            <mastercomment2/>
            <mastercomment3/>
            <mastercomment4/>
          </comments>
          <file id="HOTTR2_D_2D_HD_LB185_XVYCC_2398_TXT_ENG_ME_DS"/>
          <filter>
            <effect>
              <name>Audio Levels</name>
              <effectid>audiolevels</effectid>
              <effectcategory>audiolevels</effectcategory>
              <effecttype>audiolevels</effecttype>
              <mediatype>audio</mediatype>
              <parameter>
                <name>Level</name>
                <parameterid>level</parameterid>
                <valuemin>0</valuemin>
                <valuemax>3.98109</valuemax>
                <value>1</value>
              </parameter>
            </effect>
          </filter>
          <filter>
            <effect>
              <name>Audio Pan</name>
              <effectid>audiopan</effectid>
              <effectcategory>audiopan</effectcategory>
              <effecttype>audiopan</effecttype>
              <mediatype>audio</mediatype>
              <parameter>
                <name>Pan</name>
                <parameterid>pan</parameterid>
                <valuemin>-1</valuemin>
                <valuemax>1</valuemax>
                <value>1</value>
              </parameter>
            </effect>
          </filter>
          <sourcetrack>
            <mediatype>audio</mediatype>
            <trackindex>2</trackindex>
          </sourcetrack>
          <link>
            <linkclipref>HOTTR2_D_2D_HD_LB185_XVYCC_2398_TXT_ENG_ME_DS.mxf</linkclipref>
            <mediatype>audio</mediatype>
            <trackindex>3</trackindex>
            <clipindex>1</clipindex>
            <groupindex>1</groupindex>
          </link>
          <link>
            <linkclipref>HOTTR2_D_2D_HD_LB185_XVYCC_2398_TXT_ENG_ME_DS.mxf2</linkclipref>
            <mediatype>audio</mediatype>
            <trackindex>4</trackindex>
            <clipindex>1</clipindex>
            <groupindex>1</groupindex>
          </link>
          <itemhistory>
            <uuid>34570909-19E1-49B3-ADDC-56130B4FAF38</uuid>
          </itemhistory>
        </clipitem>
        <clipitem id="HOTTR2_D_2D_HD_LB185_XVYCC_2398_TXT_ENG_ME_DS_002.mxf2">
          <name>HOTTR2_D_2D_HD_LB185_XVYCC_2398_TXT_ENG_ME_DS_002.mxf</name>
          <duration>120</duration>
          <rate>
            <ntsc>TRUE</ntsc>
            <timebase>24</timebase>
          </rate>
          <in>0</in>
          <out>120</out>
          <start>128281</start>
          <end>128401</end>
          <masterclipid>HOTTR2_D_2D_HD_LB185_XVYCC_2398_TXT_ENG_ME_DS_002.mxf1</masterclipid>
          <logginginfo>
            <scene/>
            <shottake/>
            <lognote/>
            <good>FALSE</good>
          </logginginfo>
          <labels>
            <label2/>
          </labels>
          <comments>
            <mastercomment1/>
            <mastercomment2/>
            <mastercomment3/>
            <mastercomment4/>
          </comments>
          <file id="HOTTR2_D_2D_HD_LB185_XVYCC_2398_TXT_ENG_ME_DS_002 "/>
          <filter>
            <effect>
              <name>Audio Levels</name>
              <effectid>audiolevels</effectid>
              <effectcategory>audiolevels</effectcategory>
              <effecttype>audiolevels</effecttype>
              <mediatype>audio</mediatype>
              <parameter>
                <name>Level</name>
                <parameterid>level</parameterid>
                <valuemin>0</valuemin>
                <valuemax>3.98109</valuemax>
                <value>1</value>
              </parameter>
            </effect>
          </filter>
          <filter>
            <effect>
              <name>Audio Pan</name>
              <effectid>audiopan</effectid>
              <effectcategory>audiopan</effectcategory>
              <effecttype>audiopan</effecttype>
              <mediatype>audio</mediatype>
              <parameter>
                <name>Pan</name>
                <parameterid>pan</parameterid>
                <valuemin>-1</valuemin>
                <valuemax>1</valuemax>
                <value>1</value>
              </parameter>
            </effect>
          </filter>
          <sourcetrack>
            <mediatype>audio</mediatype>
            <trackindex>2</trackindex>
          </sourcetrack>
          <link>
            <linkclipref>HOTTR2_D_2D_HD_LB185_XVYCC_2398_TXT_ENG_ME_DS_002.mxf</linkclipref>
            <mediatype>audio</mediatype>
            <trackindex>3</trackindex>
            <clipindex>2</clipindex>
            <groupindex>1</groupindex>
          </link>
          <link>
            <linkclipref>HOTTR2_D_2D_HD_LB185_XVYCC_2398_TXT_ENG_ME_DS_002.mxf2</linkclipref>
            <mediatype>audio</mediatype>
            <trackindex>4</trackindex>
            <clipindex>2</clipindex>
            <groupindex>1</groupindex>
          </link>
          <itemhistory>
            <uuid>6418B977-7E3A-4019-9A11-217B9ABCDE17</uuid>
          </itemhistory>
        </clipitem>
        <clipitem id="HOTTR2_D_2D_HD_LB185_XVYCC_2398_TXT_ENG_ME_DS_003.mxf2">
          <name>HOTTR2_D_2D_HD_LB185_XVYCC_2398_TXT_ENG_ME_DS_003.mxf</name>
          <duration>8146</duration>
          <rate>
            <ntsc>TRUE</ntsc>
            <timebase>24</timebase>
          </rate>
          <in>0</in>
          <out>8146</out>
          <start>128401</start>
          <end>136547</end>
          <masterclipid>HOTTR2_D_2D_HD_LB185_XVYCC_2398_TXT_ENG_ME_DS_003.mxf1</masterclipid>
          <logginginfo>
            <scene/>
            <shottake/>
            <lognote/>
            <good>FALSE</good>
          </logginginfo>
          <labels>
            <label2/>
          </labels>
          <comments>
            <mastercomment1/>
            <mastercomment2/>
            <mastercomment3/>
            <mastercomment4/>
          </comments>
          <file id="HOTTR2_D_2D_HD_LB185_XVYCC_2398_TXT_ENG_ME_DS_003 "/>
          <filter>
            <effect>
              <name>Audio Levels</name>
              <effectid>audiolevels</effectid>
              <effectcategory>audiolevels</effectcategory>
              <effecttype>audiolevels</effecttype>
              <mediatype>audio</mediatype>
              <parameter>
                <name>Level</name>
                <parameterid>level</parameterid>
                <valuemin>0</valuemin>
                <valuemax>3.98109</valuemax>
                <value>1</value>
              </parameter>
            </effect>
          </filter>
          <filter>
            <effect>
              <name>Audio Pan</name>
              <effectid>audiopan</effectid>
              <effectcategory>audiopan</effectcategory>
              <effecttype>audiopan</effecttype>
              <mediatype>audio</mediatype>
              <parameter>
                <name>Pan</name>
                <parameterid>pan</parameterid>
                <valuemin>-1</valuemin>
                <valuemax>1</valuemax>
                <value>1</value>
              </parameter>
            </effect>
          </filter>
          <sourcetrack>
            <mediatype>audio</mediatype>
            <trackindex>2</trackindex>
          </sourcetrack>
          <link>
            <linkclipref>HOTTR2_D_2D_HD_LB185_XVYCC_2398_TXT_ENG_ME_DS_003.mxf</linkclipref>
            <mediatype>audio</mediatype>
            <trackindex>3</trackindex>
            <clipindex>3</clipindex>
            <groupindex>1</groupindex>
          </link>
          <link>
            <linkclipref>HOTTR2_D_2D_HD_LB185_XVYCC_2398_TXT_ENG_ME_DS_003.mxf2</linkclipref>
            <mediatype>audio</mediatype>
            <trackindex>4</trackindex>
            <clipindex>3</clipindex>
            <groupindex>1</groupindex>
          </link>
          <itemhistory>
            <uuid>5D2DB5B8-CB94-410B-BFFE-5DA0F5BB634C</uuid>
          </itemhistory>
        </clipitem>
        <enabled>TRUE</enabled>
        <locked>FALSE</locked>
        <outputchannelindex>3</outputchannelindex>
      </track>
      <track>
        <clipitem id="HOTTR2_D_2D_HD_LB185_XVYCC_2398_TXT_ENG_ENG_51 ">
          <name>HOTTR2_D_2D_HD_LB185_XVYCC_2398_TXT_ENG_ENG_51</name>
          <duration>128305</duration>
          <rate>
            <ntsc>TRUE</ntsc>
            <timebase>24</timebase>
          </rate>
          <in>0</in>
          <out>128281</out>
          <start>0</start>
          <end>128281</end>
          <masterclipid>HOTTR2_D_2D_HD_LB185_XVYCC_2398_TXT_ENG_ENG_51 1</masterclipid>
          <logginginfo>
            <good>FALSE</good>
          </logginginfo>
          <file id="HOTTR2_D_2D_HD_LB185_XVYCC_2398_TXT_ENG_ENG_51 2">
            <name>HOTTR2_D_2D_HD_LB185_XVYCC_2398_TXT_ENG_ENG_51.mov</name>
            <pathurl>file://localhost/Volumes/PURGATORY/Waystation/SPHE%20General/Audio/%20November%202015/Hotel%20Transylvania%202/China%20version/ENG/HOTTR2_D_2D_HD_LB185_XVYCC_2398_TXT_ENG_ENG_51.mov</pathurl>
            <rate>
              <timebase>24</timebase>
              <ntsc>TRUE</ntsc>
            </rate>
            <duration>128305</duration>
            <media>
              <audio>
                <samplecharacteristics>
                  <samplerate>48000</samplerate>
                  <depth>16</depth>
                </samplecharacteristics>
                <channelcount>1</channelcount>
              </audio>
              <audio>
                <samplecharacteristics>
                  <samplerate>48000</samplerate>
                  <depth>16</depth>
                </samplecharacteristics>
                <channelcount>1</channelcount>
              </audio>
              <audio>
                <samplecharacteristics>
                  <samplerate>48000</samplerate>
                  <depth>16</depth>
                </samplecharacteristics>
                <channelcount>1</channelcount>
              </audio>
              <audio>
                <samplecharacteristics>
                  <samplerate>48000</samplerate>
                  <depth>16</depth>
                </samplecharacteristics>
                <channelcount>1</channelcount>
              </audio>
              <audio>
                <samplecharacteristics>
                  <samplerate>48000</samplerate>
                  <depth>16</depth>
                </samplecharacteristics>
                <channelcount>1</channelcount>
              </audio>
              <audio>
                <samplecharacteristics>
                  <samplerate>48000</samplerate>
                  <depth>16</depth>
                </samplecharacteristics>
                <channelcount>1</channelcount>
              </audio>
            </media>
          </file>
          <filter>
            <effect>
              <name>Audio Levels</name>
              <effectid>audiolevels</effectid>
              <effectcategory>audiolevels</effectcategory>
              <effecttype>audiolevels</effecttype>
              <mediatype>audio</mediatype>
              <parameter>
                <name>Level</name>
                <parameterid>level</parameterid>
                <valuemin>0</valuemin>
                <valuemax>3.98109</valuemax>
                <value>1</value>
              </parameter>
            </effect>
          </filter>
          <filter>
            <effect>
              <name>Audio Pan</name>
              <effectid>audiopan</effectid>
              <effectcategory>audiopan</effectcategory>
              <effecttype>audiopan</effecttype>
              <mediatype>audio</mediatype>
              <parameter>
                <name>Pan</name>
                <parameterid>pan</parameterid>
                <valuemin>-1</valuemin>
                <valuemax>1</valuemax>
                <value>0</value>
              </parameter>
            </effect>
          </filter>
          <sourcetrack>
            <mediatype>audio</mediatype>
            <trackindex>1</trackindex>
          </sourcetrack>
          <link>
            <linkclipref>HOTTR2_D_2D_HD_LB185_XVYCC_2398_TXT_ENG_ENG_51 </linkclipref>
            <mediatype>audio</mediatype>
            <trackindex>5</trackindex>
            <clipindex>1</clipindex>
          </link>
          <link>
            <linkclipref>HOTTR2_D_2D_HD_LB185_XVYCC_2398_TXT_ENG_ENG_51 3</linkclipref>
            <mediatype>audio</mediatype>
            <trackindex>6</trackindex>
            <clipindex>1</clipindex>
          </link>
          <link>
            <linkclipref>HOTTR2_D_2D_HD_LB185_XVYCC_2398_TXT_ENG_ENG_51 4</linkclipref>
            <mediatype>audio</mediatype>
            <trackindex>7</trackindex>
            <clipindex>1</clipindex>
          </link>
          <link>
            <linkclipref>HOTTR2_D_2D_HD_LB185_XVYCC_2398_TXT_ENG_ENG_51 5</linkclipref>
            <mediatype>audio</mediatype>
            <trackindex>8</trackindex>
            <clipindex>1</clipindex>
          </link>
          <link>
            <linkclipref>HOTTR2_D_2D_HD_LB185_XVYCC_2398_TXT_ENG_ENG_51 6</linkclipref>
            <mediatype>audio</mediatype>
            <trackindex>9</trackindex>
            <clipindex>1</clipindex>
          </link>
          <link>
            <linkclipref>HOTTR2_D_2D_HD_LB185_XVYCC_2398_TXT_ENG_ENG_51 7</linkclipref>
            <mediatype>audio</mediatype>
            <trackindex>10</trackindex>
            <clipindex>1</clipindex>
          </link>
          <itemhistory>
            <uuid>55C35A89-CCDE-4193-ABFA-39BA87DC38F5</uuid>
          </itemhistory>
        </clipitem>
        <clipitem id="HOTTR2_D_2D_HD_LB185_XVYCC_2398_TXT_ENG_ENG_51_002.mxf">
          <name>HOTTR2_D_2D_HD_LB185_XVYCC_2398_TXT_ENG_ENG_51_002.mxf</name>
          <duration>120</duration>
          <rate>
            <ntsc>TRUE</ntsc>
            <timebase>24</timebase>
          </rate>
          <in>0</in>
          <out>120</out>
          <start>128281</start>
          <end>128401</end>
          <masterclipid>HOTTR2_D_2D_HD_LB185_XVYCC_2398_TXT_ENG_ENG_51_002.mxf1</masterclipid>
          <logginginfo>
            <scene/>
            <shottake/>
            <lognote/>
            <good>FALSE</good>
          </logginginfo>
          <labels>
            <label2/>
          </labels>
          <comments>
            <mastercomment1/>
            <mastercomment2/>
            <mastercomment3/>
            <mastercomment4/>
          </comments>
          <file id="HOTTR2_D_2D_HD_LB185_XVYCC_2398_TXT_ENG_ENG_51_002 ">
            <name>HOTTR2_D_2D_HD_LB185_XVYCC_2398_TXT_ENG_ENG_51_002.mxf</name>
            <pathurl>file://localhost/Volumes/PURGATORY/Waystation/SPHE%20General/Audio/%20November%202015/Hotel%20Transylvania%202/China%20version/ENG/HOTTR2_D_2D_HD_LB185_XVYCC_2398_TXT_ENG_ENG_51_002.mxf</pathurl>
            <rate>
              <timebase>24</timebase>
              <ntsc>TRUE</ntsc>
            </rate>
            <duration>120</duration>
            <timecode>
              <rate>
                <timebase>24</timebase>
              </rate>
              <string>02:28:35:01</string>
              <frame>213961</frame>
              <displayformat>NDF</displayformat>
              <source>source</source>
              <reel>
                <name>0x060A2B340101010501010F20130000006FC5A705F24A4E6A8028CE79AB24BA6B</name>
              </reel>
            </timecode>
            <timecode>
              <rate>
                <timebase>24</timebase>
              </rate>
              <string>02:28:35:01</string>
              <frame>213961</frame>
              <displayformat>NDF</displayformat>
              <source>aux1</source>
              <reel>
                <name>0x060A2B340101010501010F20130000006FC5A705F24A4E6A8028CE79AB24BA6B</name>
              </reel>
            </timecode>
            <media>
              <audio>
                <samplecharacteristics>
                  <samplerate>48000</samplerate>
                  <depth>24</depth>
                </samplecharacteristics>
                <channelcount>6</channelcount>
              </audio>
            </media>
          </file>
          <filter>
            <effect>
              <name>Audio Levels</name>
              <effectid>audiolevels</effectid>
              <effectcategory>audiolevels</effectcategory>
              <effecttype>audiolevels</effecttype>
              <mediatype>audio</mediatype>
              <parameter>
                <name>Level</name>
                <parameterid>level</parameterid>
                <valuemin>0</valuemin>
                <valuemax>3.98109</valuemax>
                <value>1</value>
              </parameter>
            </effect>
          </filter>
          <filter>
            <effect>
              <name>Audio Pan</name>
              <effectid>audiopan</effectid>
              <effectcategory>audiopan</effectcategory>
              <effecttype>audiopan</effecttype>
              <mediatype>audio</mediatype>
              <parameter>
                <name>Pan</name>
                <parameterid>pan</parameterid>
                <valuemin>-1</valuemin>
                <valuemax>1</valuemax>
                <value>0</value>
              </parameter>
            </effect>
          </filter>
          <sourcetrack>
            <mediatype>audio</mediatype>
            <trackindex>1</trackindex>
          </sourcetrack>
          <link>
            <linkclipref>HOTTR2_D_2D_HD_LB185_XVYCC_2398_TXT_ENG_ENG_51_002.mxf</linkclipref>
            <mediatype>audio</mediatype>
            <trackindex>5</trackindex>
            <clipindex>2</clipindex>
          </link>
          <link>
            <linkclipref>HOTTR2_D_2D_HD_LB185_XVYCC_2398_TXT_ENG_ENG_51_002.mxf2</linkclipref>
            <mediatype>audio</mediatype>
            <trackindex>6</trackindex>
            <clipindex>2</clipindex>
          </link>
          <link>
            <linkclipref>HOTTR2_D_2D_HD_LB185_XVYCC_2398_TXT_ENG_ENG_51_002.mxf3</linkclipref>
            <mediatype>audio</mediatype>
            <trackindex>7</trackindex>
            <clipindex>2</clipindex>
          </link>
          <link>
            <linkclipref>HOTTR2_D_2D_HD_LB185_XVYCC_2398_TXT_ENG_ENG_51_002.mxf4</linkclipref>
            <mediatype>audio</mediatype>
            <trackindex>8</trackindex>
            <clipindex>2</clipindex>
          </link>
          <link>
            <linkclipref>HOTTR2_D_2D_HD_LB185_XVYCC_2398_TXT_ENG_ENG_51_002.mxf5</linkclipref>
            <mediatype>audio</mediatype>
            <trackindex>9</trackindex>
            <clipindex>2</clipindex>
          </link>
          <link>
            <linkclipref>HOTTR2_D_2D_HD_LB185_XVYCC_2398_TXT_ENG_ENG_51_002.mxf6</linkclipref>
            <mediatype>audio</mediatype>
            <trackindex>10</trackindex>
            <clipindex>2</clipindex>
          </link>
          <itemhistory>
            <uuid>ECCCAA73-903B-499B-BDE2-76576FE66F92</uuid>
          </itemhistory>
        </clipitem>
        <clipitem id="HOTTR2_D_2D_HD_LB185_XVYCC_2398_TXT_ENG_ENG_51_003.mxf">
          <name>HOTTR2_D_2D_HD_LB185_XVYCC_2398_TXT_ENG_ENG_51_003.mxf</name>
          <duration>8146</duration>
          <rate>
            <ntsc>TRUE</ntsc>
            <timebase>24</timebase>
          </rate>
          <in>0</in>
          <out>8146</out>
          <start>128401</start>
          <end>136547</end>
          <masterclipid>HOTTR2_D_2D_HD_LB185_XVYCC_2398_TXT_ENG_ENG_51_003.mxf1</masterclipid>
          <logginginfo>
            <scene/>
            <shottake/>
            <lognote/>
            <good>FALSE</good>
          </logginginfo>
          <labels>
            <label2/>
          </labels>
          <comments>
            <mastercomment1/>
            <mastercomment2/>
            <mastercomment3/>
            <mastercomment4/>
          </comments>
          <file id="HOTTR2_D_2D_HD_LB185_XVYCC_2398_TXT_ENG_ENG_51_003 ">
            <name>HOTTR2_D_2D_HD_LB185_XVYCC_2398_TXT_ENG_ENG_51_003.mxf</name>
            <pathurl>file://localhost/Volumes/PURGATORY/Waystation/SPHE%20General/Audio/%20November%202015/Hotel%20Transylvania%202/China%20version/ENG/HOTTR2_D_2D_HD_LB185_XVYCC_2398_TXT_ENG_ENG_51_003.mxf</pathurl>
            <rate>
              <timebase>24</timebase>
              <ntsc>TRUE</ntsc>
            </rate>
            <duration>8146</duration>
            <timecode>
              <rate>
                <timebase>24</timebase>
              </rate>
              <string>02:28:40:01</string>
              <frame>214081</frame>
              <displayformat>NDF</displayformat>
              <source>source</source>
              <reel>
                <name>0x060A2B340101010501010F20130000006BE7035BBB314A8B891AD067E5E7DF18</name>
              </reel>
            </timecode>
            <timecode>
              <rate>
                <timebase>24</timebase>
              </rate>
              <string>02:28:40:01</string>
              <frame>214081</frame>
              <displayformat>NDF</displayformat>
              <source>aux1</source>
              <reel>
                <name>0x060A2B340101010501010F20130000006BE7035BBB314A8B891AD067E5E7DF18</name>
              </reel>
            </timecode>
            <media>
              <audio>
                <samplecharacteristics>
                  <samplerate>48000</samplerate>
                  <depth>24</depth>
                </samplecharacteristics>
                <channelcount>6</channelcount>
              </audio>
            </media>
          </file>
          <filter>
            <effect>
              <name>Audio Levels</name>
              <effectid>audiolevels</effectid>
              <effectcategory>audiolevels</effectcategory>
              <effecttype>audiolevels</effecttype>
              <mediatype>audio</mediatype>
              <parameter>
                <name>Level</name>
                <parameterid>level</parameterid>
                <valuemin>0</valuemin>
                <valuemax>3.98109</valuemax>
                <value>1</value>
              </parameter>
            </effect>
          </filter>
          <filter>
            <effect>
              <name>Audio Pan</name>
              <effectid>audiopan</effectid>
              <effectcategory>audiopan</effectcategory>
              <effecttype>audiopan</effecttype>
              <mediatype>audio</mediatype>
              <parameter>
                <name>Pan</name>
                <parameterid>pan</parameterid>
                <valuemin>-1</valuemin>
                <valuemax>1</valuemax>
                <value>0</value>
              </parameter>
            </effect>
          </filter>
          <sourcetrack>
            <mediatype>audio</mediatype>
            <trackindex>1</trackindex>
          </sourcetrack>
          <link>
            <linkclipref>HOTTR2_D_2D_HD_LB185_XVYCC_2398_TXT_ENG_ENG_51_003.mxf</linkclipref>
            <mediatype>audio</mediatype>
            <trackindex>5</trackindex>
            <clipindex>3</clipindex>
          </link>
          <link>
            <linkclipref>HOTTR2_D_2D_HD_LB185_XVYCC_2398_TXT_ENG_ENG_51_003.mxf2</linkclipref>
            <mediatype>audio</mediatype>
            <trackindex>6</trackindex>
            <clipindex>3</clipindex>
          </link>
          <link>
            <linkclipref>HOTTR2_D_2D_HD_LB185_XVYCC_2398_TXT_ENG_ENG_51_003.mxf3</linkclipref>
            <mediatype>audio</mediatype>
            <trackindex>7</trackindex>
            <clipindex>3</clipindex>
          </link>
          <link>
            <linkclipref>HOTTR2_D_2D_HD_LB185_XVYCC_2398_TXT_ENG_ENG_51_003.mxf4</linkclipref>
            <mediatype>audio</mediatype>
            <trackindex>8</trackindex>
            <clipindex>3</clipindex>
          </link>
          <link>
            <linkclipref>HOTTR2_D_2D_HD_LB185_XVYCC_2398_TXT_ENG_ENG_51_003.mxf5</linkclipref>
            <mediatype>audio</mediatype>
            <trackindex>9</trackindex>
            <clipindex>3</clipindex>
          </link>
          <link>
            <linkclipref>HOTTR2_D_2D_HD_LB185_XVYCC_2398_TXT_ENG_ENG_51_003.mxf6</linkclipref>
            <mediatype>audio</mediatype>
            <trackindex>10</trackindex>
            <clipindex>3</clipindex>
          </link>
          <itemhistory>
            <uuid>E1CACA4D-3A44-4A75-95DE-0481CDED09D4</uuid>
          </itemhistory>
        </clipitem>
        <enabled>TRUE</enabled>
        <locked>FALSE</locked>
        <outputchannelindex>5</outputchannelindex>
      </track>
      <track>
        <clipitem id="HOTTR2_D_2D_HD_LB185_XVYCC_2398_TXT_ENG_ENG_51 3">
          <name>HOTTR2_D_2D_HD_LB185_XVYCC_2398_TXT_ENG_ENG_51</name>
          <duration>128305</duration>
          <rate>
            <ntsc>TRUE</ntsc>
            <timebase>24</timebase>
          </rate>
          <in>0</in>
          <out>128281</out>
          <start>0</start>
          <end>128281</end>
          <masterclipid>HOTTR2_D_2D_HD_LB185_XVYCC_2398_TXT_ENG_ENG_51 1</masterclipid>
          <logginginfo>
            <good>FALSE</good>
          </logginginfo>
          <file id="HOTTR2_D_2D_HD_LB185_XVYCC_2398_TXT_ENG_ENG_51 2"/>
          <filter>
            <effect>
              <name>Audio Levels</name>
              <effectid>audiolevels</effectid>
              <effectcategory>audiolevels</effectcategory>
              <effecttype>audiolevels</effecttype>
              <mediatype>audio</mediatype>
              <parameter>
                <name>Level</name>
                <parameterid>level</parameterid>
                <valuemin>0</valuemin>
                <valuemax>3.98109</valuemax>
                <value>1</value>
              </parameter>
            </effect>
          </filter>
          <filter>
            <effect>
              <name>Audio Pan</name>
              <effectid>audiopan</effectid>
              <effectcategory>audiopan</effectcategory>
              <effecttype>audiopan</effecttype>
              <mediatype>audio</mediatype>
              <parameter>
                <name>Pan</name>
                <parameterid>pan</parameterid>
                <valuemin>-1</valuemin>
                <valuemax>1</valuemax>
                <value>0</value>
              </parameter>
            </effect>
          </filter>
          <sourcetrack>
            <mediatype>audio</mediatype>
            <trackindex>2</trackindex>
          </sourcetrack>
          <link>
            <linkclipref>HOTTR2_D_2D_HD_LB185_XVYCC_2398_TXT_ENG_ENG_51 </linkclipref>
            <mediatype>audio</mediatype>
            <trackindex>5</trackindex>
            <clipindex>1</clipindex>
          </link>
          <link>
            <linkclipref>HOTTR2_D_2D_HD_LB185_XVYCC_2398_TXT_ENG_ENG_51 3</linkclipref>
            <mediatype>audio</mediatype>
            <trackindex>6</trackindex>
            <clipindex>1</clipindex>
          </link>
          <link>
            <linkclipref>HOTTR2_D_2D_HD_LB185_XVYCC_2398_TXT_ENG_ENG_51 4</linkclipref>
            <mediatype>audio</mediatype>
            <trackindex>7</trackindex>
            <clipindex>1</clipindex>
          </link>
          <link>
            <linkclipref>HOTTR2_D_2D_HD_LB185_XVYCC_2398_TXT_ENG_ENG_51 5</linkclipref>
            <mediatype>audio</mediatype>
            <trackindex>8</trackindex>
            <clipindex>1</clipindex>
          </link>
          <link>
            <linkclipref>HOTTR2_D_2D_HD_LB185_XVYCC_2398_TXT_ENG_ENG_51 6</linkclipref>
            <mediatype>audio</mediatype>
            <trackindex>9</trackindex>
            <clipindex>1</clipindex>
          </link>
          <link>
            <linkclipref>HOTTR2_D_2D_HD_LB185_XVYCC_2398_TXT_ENG_ENG_51 7</linkclipref>
            <mediatype>audio</mediatype>
            <trackindex>10</trackindex>
            <clipindex>1</clipindex>
          </link>
          <itemhistory>
            <uuid>9B86978C-D33D-4B24-B441-7CD6EADCA3ED</uuid>
          </itemhistory>
        </clipitem>
        <clipitem id="HOTTR2_D_2D_HD_LB185_XVYCC_2398_TXT_ENG_ENG_51_002.mxf2">
          <name>HOTTR2_D_2D_HD_LB185_XVYCC_2398_TXT_ENG_ENG_51_002.mxf</name>
          <duration>120</duration>
          <rate>
            <ntsc>TRUE</ntsc>
            <timebase>24</timebase>
          </rate>
          <in>0</in>
          <out>120</out>
          <start>128281</start>
          <end>128401</end>
          <masterclipid>HOTTR2_D_2D_HD_LB185_XVYCC_2398_TXT_ENG_ENG_51_002.mxf1</masterclipid>
          <logginginfo>
            <scene/>
            <shottake/>
            <lognote/>
            <good>FALSE</good>
          </logginginfo>
          <labels>
            <label2/>
          </labels>
          <comments>
            <mastercomment1/>
            <mastercomment2/>
            <mastercomment3/>
            <mastercomment4/>
          </comments>
          <file id="HOTTR2_D_2D_HD_LB185_XVYCC_2398_TXT_ENG_ENG_51_002 "/>
          <filter>
            <effect>
              <name>Audio Levels</name>
              <effectid>audiolevels</effectid>
              <effectcategory>audiolevels</effectcategory>
              <effecttype>audiolevels</effecttype>
              <mediatype>audio</mediatype>
              <parameter>
                <name>Level</name>
                <parameterid>level</parameterid>
                <valuemin>0</valuemin>
                <valuemax>3.98109</valuemax>
                <value>1</value>
              </parameter>
            </effect>
          </filter>
          <filter>
            <effect>
              <name>Audio Pan</name>
              <effectid>audiopan</effectid>
              <effectcategory>audiopan</effectcategory>
              <effecttype>audiopan</effecttype>
              <mediatype>audio</mediatype>
              <parameter>
                <name>Pan</name>
                <parameterid>pan</parameterid>
                <valuemin>-1</valuemin>
                <valuemax>1</valuemax>
                <value>0</value>
              </parameter>
            </effect>
          </filter>
          <sourcetrack>
            <mediatype>audio</mediatype>
            <trackindex>2</trackindex>
          </sourcetrack>
          <link>
            <linkclipref>HOTTR2_D_2D_HD_LB185_XVYCC_2398_TXT_ENG_ENG_51_002.mxf</linkclipref>
            <mediatype>audio</mediatype>
            <trackindex>5</trackindex>
            <clipindex>2</clipindex>
          </link>
          <link>
            <linkclipref>HOTTR2_D_2D_HD_LB185_XVYCC_2398_TXT_ENG_ENG_51_002.mxf2</linkclipref>
            <mediatype>audio</mediatype>
            <trackindex>6</trackindex>
            <clipindex>2</clipindex>
          </link>
          <link>
            <linkclipref>HOTTR2_D_2D_HD_LB185_XVYCC_2398_TXT_ENG_ENG_51_002.mxf3</linkclipref>
            <mediatype>audio</mediatype>
            <trackindex>7</trackindex>
            <clipindex>2</clipindex>
          </link>
          <link>
            <linkclipref>HOTTR2_D_2D_HD_LB185_XVYCC_2398_TXT_ENG_ENG_51_002.mxf4</linkclipref>
            <mediatype>audio</mediatype>
            <trackindex>8</trackindex>
            <clipindex>2</clipindex>
          </link>
          <link>
            <linkclipref>HOTTR2_D_2D_HD_LB185_XVYCC_2398_TXT_ENG_ENG_51_002.mxf5</linkclipref>
            <mediatype>audio</mediatype>
            <trackindex>9</trackindex>
            <clipindex>2</clipindex>
          </link>
          <link>
            <linkclipref>HOTTR2_D_2D_HD_LB185_XVYCC_2398_TXT_ENG_ENG_51_002.mxf6</linkclipref>
            <mediatype>audio</mediatype>
            <trackindex>10</trackindex>
            <clipindex>2</clipindex>
          </link>
          <itemhistory>
            <uuid>EBAE4B3E-2BA2-47C5-BCEB-021E0C1AB375</uuid>
          </itemhistory>
        </clipitem>
        <clipitem id="HOTTR2_D_2D_HD_LB185_XVYCC_2398_TXT_ENG_ENG_51_003.mxf2">
          <name>HOTTR2_D_2D_HD_LB185_XVYCC_2398_TXT_ENG_ENG_51_003.mxf</name>
          <duration>8146</duration>
          <rate>
            <ntsc>TRUE</ntsc>
            <timebase>24</timebase>
          </rate>
          <in>0</in>
          <out>8146</out>
          <start>128401</start>
          <end>136547</end>
          <masterclipid>HOTTR2_D_2D_HD_LB185_XVYCC_2398_TXT_ENG_ENG_51_003.mxf1</masterclipid>
          <logginginfo>
            <scene/>
            <shottake/>
            <lognote/>
            <good>FALSE</good>
          </logginginfo>
          <labels>
            <label2/>
          </labels>
          <comments>
            <mastercomment1/>
            <mastercomment2/>
            <mastercomment3/>
            <mastercomment4/>
          </comments>
          <file id="HOTTR2_D_2D_HD_LB185_XVYCC_2398_TXT_ENG_ENG_51_003 "/>
          <filter>
            <effect>
              <name>Audio Levels</name>
              <effectid>audiolevels</effectid>
              <effectcategory>audiolevels</effectcategory>
              <effecttype>audiolevels</effecttype>
              <mediatype>audio</mediatype>
              <parameter>
                <name>Level</name>
                <parameterid>level</parameterid>
                <valuemin>0</valuemin>
                <valuemax>3.98109</valuemax>
                <value>1</value>
              </parameter>
            </effect>
          </filter>
          <filter>
            <effect>
              <name>Audio Pan</name>
              <effectid>audiopan</effectid>
              <effectcategory>audiopan</effectcategory>
              <effecttype>audiopan</effecttype>
              <mediatype>audio</mediatype>
              <parameter>
                <name>Pan</name>
                <parameterid>pan</parameterid>
                <valuemin>-1</valuemin>
                <valuemax>1</valuemax>
                <value>0</value>
              </parameter>
            </effect>
          </filter>
          <sourcetrack>
            <mediatype>audio</mediatype>
            <trackindex>2</trackindex>
          </sourcetrack>
          <link>
            <linkclipref>HOTTR2_D_2D_HD_LB185_XVYCC_2398_TXT_ENG_ENG_51_003.mxf</linkclipref>
            <mediatype>audio</mediatype>
            <trackindex>5</trackindex>
            <clipindex>3</clipindex>
          </link>
          <link>
            <linkclipref>HOTTR2_D_2D_HD_LB185_XVYCC_2398_TXT_ENG_ENG_51_003.mxf2</linkclipref>
            <mediatype>audio</mediatype>
            <trackindex>6</trackindex>
            <clipindex>3</clipindex>
          </link>
          <link>
            <linkclipref>HOTTR2_D_2D_HD_LB185_XVYCC_2398_TXT_ENG_ENG_51_003.mxf3</linkclipref>
            <mediatype>audio</mediatype>
            <trackindex>7</trackindex>
            <clipindex>3</clipindex>
          </link>
          <link>
            <linkclipref>HOTTR2_D_2D_HD_LB185_XVYCC_2398_TXT_ENG_ENG_51_003.mxf4</linkclipref>
            <mediatype>audio</mediatype>
            <trackindex>8</trackindex>
            <clipindex>3</clipindex>
          </link>
          <link>
            <linkclipref>HOTTR2_D_2D_HD_LB185_XVYCC_2398_TXT_ENG_ENG_51_003.mxf5</linkclipref>
            <mediatype>audio</mediatype>
            <trackindex>9</trackindex>
            <clipindex>3</clipindex>
          </link>
          <link>
            <linkclipref>HOTTR2_D_2D_HD_LB185_XVYCC_2398_TXT_ENG_ENG_51_003.mxf6</linkclipref>
            <mediatype>audio</mediatype>
            <trackindex>10</trackindex>
            <clipindex>3</clipindex>
          </link>
          <itemhistory>
            <uuid>23736F40-09B4-41FB-8672-34F744E8AC2B</uuid>
          </itemhistory>
        </clipitem>
        <enabled>TRUE</enabled>
        <locked>FALSE</locked>
        <outputchannelindex>6</outputchannelindex>
      </track>
      <track>
        <clipitem id="HOTTR2_D_2D_HD_LB185_XVYCC_2398_TXT_ENG_ENG_51 4">
          <name>HOTTR2_D_2D_HD_LB185_XVYCC_2398_TXT_ENG_ENG_51</name>
          <duration>128305</duration>
          <rate>
            <ntsc>TRUE</ntsc>
            <timebase>24</timebase>
          </rate>
          <in>0</in>
          <out>128281</out>
          <start>0</start>
          <end>128281</end>
          <masterclipid>HOTTR2_D_2D_HD_LB185_XVYCC_2398_TXT_ENG_ENG_51 1</masterclipid>
          <logginginfo>
            <good>FALSE</good>
          </logginginfo>
          <file id="HOTTR2_D_2D_HD_LB185_XVYCC_2398_TXT_ENG_ENG_51 2"/>
          <filter>
            <effect>
              <name>Audio Levels</name>
              <effectid>audiolevels</effectid>
              <effectcategory>audiolevels</effectcategory>
              <effecttype>audiolevels</effecttype>
              <mediatype>audio</mediatype>
              <parameter>
                <name>Level</name>
                <parameterid>level</parameterid>
                <valuemin>0</valuemin>
                <valuemax>3.98109</valuemax>
                <value>1</value>
              </parameter>
            </effect>
          </filter>
          <filter>
            <effect>
              <name>Audio Pan</name>
              <effectid>audiopan</effectid>
              <effectcategory>audiopan</effectcategory>
              <effecttype>audiopan</effecttype>
              <mediatype>audio</mediatype>
              <parameter>
                <name>Pan</name>
                <parameterid>pan</parameterid>
                <valuemin>-1</valuemin>
                <valuemax>1</valuemax>
                <value>0</value>
              </parameter>
            </effect>
          </filter>
          <sourcetrack>
            <mediatype>audio</mediatype>
            <trackindex>3</trackindex>
          </sourcetrack>
          <link>
            <linkclipref>HOTTR2_D_2D_HD_LB185_XVYCC_2398_TXT_ENG_ENG_51 </linkclipref>
            <mediatype>audio</mediatype>
            <trackindex>5</trackindex>
            <clipindex>1</clipindex>
          </link>
          <link>
            <linkclipref>HOTTR2_D_2D_HD_LB185_XVYCC_2398_TXT_ENG_ENG_51 3</linkclipref>
            <mediatype>audio</mediatype>
            <trackindex>6</trackindex>
            <clipindex>1</clipindex>
          </link>
          <link>
            <linkclipref>HOTTR2_D_2D_HD_LB185_XVYCC_2398_TXT_ENG_ENG_51 4</linkclipref>
            <mediatype>audio</mediatype>
            <trackindex>7</trackindex>
            <clipindex>1</clipindex>
          </link>
          <link>
            <linkclipref>HOTTR2_D_2D_HD_LB185_XVYCC_2398_TXT_ENG_ENG_51 5</linkclipref>
            <mediatype>audio</mediatype>
            <trackindex>8</trackindex>
            <clipindex>1</clipindex>
          </link>
          <link>
            <linkclipref>HOTTR2_D_2D_HD_LB185_XVYCC_2398_TXT_ENG_ENG_51 6</linkclipref>
            <mediatype>audio</mediatype>
            <trackindex>9</trackindex>
            <clipindex>1</clipindex>
          </link>
          <link>
            <linkclipref>HOTTR2_D_2D_HD_LB185_XVYCC_2398_TXT_ENG_ENG_51 7</linkclipref>
            <mediatype>audio</mediatype>
            <trackindex>10</trackindex>
            <clipindex>1</clipindex>
          </link>
          <itemhistory>
            <uuid>207DC676-9C46-4E1C-BB01-25B8DFECC0A2</uuid>
          </itemhistory>
        </clipitem>
        <clipitem id="HOTTR2_D_2D_HD_LB185_XVYCC_2398_TXT_ENG_ENG_51_002.mxf3">
          <name>HOTTR2_D_2D_HD_LB185_XVYCC_2398_TXT_ENG_ENG_51_002.mxf</name>
          <duration>120</duration>
          <rate>
            <ntsc>TRUE</ntsc>
            <timebase>24</timebase>
          </rate>
          <in>0</in>
          <out>120</out>
          <start>128281</start>
          <end>128401</end>
          <masterclipid>HOTTR2_D_2D_HD_LB185_XVYCC_2398_TXT_ENG_ENG_51_002.mxf1</masterclipid>
          <logginginfo>
            <scene/>
            <shottake/>
            <lognote/>
            <good>FALSE</good>
          </logginginfo>
          <labels>
            <label2/>
          </labels>
          <comments>
            <mastercomment1/>
            <mastercomment2/>
            <mastercomment3/>
            <mastercomment4/>
          </comments>
          <file id="HOTTR2_D_2D_HD_LB185_XVYCC_2398_TXT_ENG_ENG_51_002 "/>
          <filter>
            <effect>
              <name>Audio Levels</name>
              <effectid>audiolevels</effectid>
              <effectcategory>audiolevels</effectcategory>
              <effecttype>audiolevels</effecttype>
              <mediatype>audio</mediatype>
              <parameter>
                <name>Level</name>
                <parameterid>level</parameterid>
                <valuemin>0</valuemin>
                <valuemax>3.98109</valuemax>
                <value>1</value>
              </parameter>
            </effect>
          </filter>
          <filter>
            <effect>
              <name>Audio Pan</name>
              <effectid>audiopan</effectid>
              <effectcategory>audiopan</effectcategory>
              <effecttype>audiopan</effecttype>
              <mediatype>audio</mediatype>
              <parameter>
                <name>Pan</name>
                <parameterid>pan</parameterid>
                <valuemin>-1</valuemin>
                <valuemax>1</valuemax>
                <value>0</value>
              </parameter>
            </effect>
          </filter>
          <sourcetrack>
            <mediatype>audio</mediatype>
            <trackindex>3</trackindex>
          </sourcetrack>
          <link>
            <linkclipref>HOTTR2_D_2D_HD_LB185_XVYCC_2398_TXT_ENG_ENG_51_002.mxf</linkclipref>
            <mediatype>audio</mediatype>
            <trackindex>5</trackindex>
            <clipindex>2</clipindex>
          </link>
          <link>
            <linkclipref>HOTTR2_D_2D_HD_LB185_XVYCC_2398_TXT_ENG_ENG_51_002.mxf2</linkclipref>
            <mediatype>audio</mediatype>
            <trackindex>6</trackindex>
            <clipindex>2</clipindex>
          </link>
          <link>
            <linkclipref>HOTTR2_D_2D_HD_LB185_XVYCC_2398_TXT_ENG_ENG_51_002.mxf3</linkclipref>
            <mediatype>audio</mediatype>
            <trackindex>7</trackindex>
            <clipindex>2</clipindex>
          </link>
          <link>
            <linkclipref>HOTTR2_D_2D_HD_LB185_XVYCC_2398_TXT_ENG_ENG_51_002.mxf4</linkclipref>
            <mediatype>audio</mediatype>
            <trackindex>8</trackindex>
            <clipindex>2</clipindex>
          </link>
          <link>
            <linkclipref>HOTTR2_D_2D_HD_LB185_XVYCC_2398_TXT_ENG_ENG_51_002.mxf5</linkclipref>
            <mediatype>audio</mediatype>
            <trackindex>9</trackindex>
            <clipindex>2</clipindex>
          </link>
          <link>
            <linkclipref>HOTTR2_D_2D_HD_LB185_XVYCC_2398_TXT_ENG_ENG_51_002.mxf6</linkclipref>
            <mediatype>audio</mediatype>
            <trackindex>10</trackindex>
            <clipindex>2</clipindex>
          </link>
          <itemhistory>
            <uuid>E1C09390-CF8E-406A-B2C7-339E178EC894</uuid>
          </itemhistory>
        </clipitem>
        <clipitem id="HOTTR2_D_2D_HD_LB185_XVYCC_2398_TXT_ENG_ENG_51_003.mxf3">
          <name>HOTTR2_D_2D_HD_LB185_XVYCC_2398_TXT_ENG_ENG_51_003.mxf</name>
          <duration>8146</duration>
          <rate>
            <ntsc>TRUE</ntsc>
            <timebase>24</timebase>
          </rate>
          <in>0</in>
          <out>8146</out>
          <start>128401</start>
          <end>136547</end>
          <masterclipid>HOTTR2_D_2D_HD_LB185_XVYCC_2398_TXT_ENG_ENG_51_003.mxf1</masterclipid>
          <logginginfo>
            <scene/>
            <shottake/>
            <lognote/>
            <good>FALSE</good>
          </logginginfo>
          <labels>
            <label2/>
          </labels>
          <comments>
            <mastercomment1/>
            <mastercomment2/>
            <mastercomment3/>
            <mastercomment4/>
          </comments>
          <file id="HOTTR2_D_2D_HD_LB185_XVYCC_2398_TXT_ENG_ENG_51_003 "/>
          <filter>
            <effect>
              <name>Audio Levels</name>
              <effectid>audiolevels</effectid>
              <effectcategory>audiolevels</effectcategory>
              <effecttype>audiolevels</effecttype>
              <mediatype>audio</mediatype>
              <parameter>
                <name>Level</name>
                <parameterid>level</parameterid>
                <valuemin>0</valuemin>
                <valuemax>3.98109</valuemax>
                <value>1</value>
              </parameter>
            </effect>
          </filter>
          <filter>
            <effect>
              <name>Audio Pan</name>
              <effectid>audiopan</effectid>
              <effectcategory>audiopan</effectcategory>
              <effecttype>audiopan</effecttype>
              <mediatype>audio</mediatype>
              <parameter>
                <name>Pan</name>
                <parameterid>pan</parameterid>
                <valuemin>-1</valuemin>
                <valuemax>1</valuemax>
                <value>0</value>
              </parameter>
            </effect>
          </filter>
          <sourcetrack>
            <mediatype>audio</mediatype>
            <trackindex>3</trackindex>
          </sourcetrack>
          <link>
            <linkclipref>HOTTR2_D_2D_HD_LB185_XVYCC_2398_TXT_ENG_ENG_51_003.mxf</linkclipref>
            <mediatype>audio</mediatype>
            <trackindex>5</trackindex>
            <clipindex>3</clipindex>
          </link>
          <link>
            <linkclipref>HOTTR2_D_2D_HD_LB185_XVYCC_2398_TXT_ENG_ENG_51_003.mxf2</linkclipref>
            <mediatype>audio</mediatype>
            <trackindex>6</trackindex>
            <clipindex>3</clipindex>
          </link>
          <link>
            <linkclipref>HOTTR2_D_2D_HD_LB185_XVYCC_2398_TXT_ENG_ENG_51_003.mxf3</linkclipref>
            <mediatype>audio</mediatype>
            <trackindex>7</trackindex>
            <clipindex>3</clipindex>
          </link>
          <link>
            <linkclipref>HOTTR2_D_2D_HD_LB185_XVYCC_2398_TXT_ENG_ENG_51_003.mxf4</linkclipref>
            <mediatype>audio</mediatype>
            <trackindex>8</trackindex>
            <clipindex>3</clipindex>
          </link>
          <link>
            <linkclipref>HOTTR2_D_2D_HD_LB185_XVYCC_2398_TXT_ENG_ENG_51_003.mxf5</linkclipref>
            <mediatype>audio</mediatype>
            <trackindex>9</trackindex>
            <clipindex>3</clipindex>
          </link>
          <link>
            <linkclipref>HOTTR2_D_2D_HD_LB185_XVYCC_2398_TXT_ENG_ENG_51_003.mxf6</linkclipref>
            <mediatype>audio</mediatype>
            <trackindex>10</trackindex>
            <clipindex>3</clipindex>
          </link>
          <itemhistory>
            <uuid>469E2901-A131-4B0F-B6C2-E80E68DCF9BA</uuid>
          </itemhistory>
        </clipitem>
        <enabled>TRUE</enabled>
        <locked>FALSE</locked>
        <outputchannelindex>7</outputchannelindex>
      </track>
      <track>
        <clipitem id="HOTTR2_D_2D_HD_LB185_XVYCC_2398_TXT_ENG_ENG_51 5">
          <name>HOTTR2_D_2D_HD_LB185_XVYCC_2398_TXT_ENG_ENG_51</name>
          <duration>128305</duration>
          <rate>
            <ntsc>TRUE</ntsc>
            <timebase>24</timebase>
          </rate>
          <in>0</in>
          <out>128281</out>
          <start>0</start>
          <end>128281</end>
          <masterclipid>HOTTR2_D_2D_HD_LB185_XVYCC_2398_TXT_ENG_ENG_51 1</masterclipid>
          <logginginfo>
            <good>FALSE</good>
          </logginginfo>
          <file id="HOTTR2_D_2D_HD_LB185_XVYCC_2398_TXT_ENG_ENG_51 2"/>
          <filter>
            <effect>
              <name>Audio Levels</name>
              <effectid>audiolevels</effectid>
              <effectcategory>audiolevels</effectcategory>
              <effecttype>audiolevels</effecttype>
              <mediatype>audio</mediatype>
              <parameter>
                <name>Level</name>
                <parameterid>level</parameterid>
                <valuemin>0</valuemin>
                <valuemax>3.98109</valuemax>
                <value>1</value>
              </parameter>
            </effect>
          </filter>
          <filter>
            <effect>
              <name>Audio Pan</name>
              <effectid>audiopan</effectid>
              <effectcategory>audiopan</effectcategory>
              <effecttype>audiopan</effecttype>
              <mediatype>audio</mediatype>
              <parameter>
                <name>Pan</name>
                <parameterid>pan</parameterid>
                <valuemin>-1</valuemin>
                <valuemax>1</valuemax>
                <value>0</value>
              </parameter>
            </effect>
          </filter>
          <sourcetrack>
            <mediatype>audio</mediatype>
            <trackindex>4</trackindex>
          </sourcetrack>
          <link>
            <linkclipref>HOTTR2_D_2D_HD_LB185_XVYCC_2398_TXT_ENG_ENG_51 </linkclipref>
            <mediatype>audio</mediatype>
            <trackindex>5</trackindex>
            <clipindex>1</clipindex>
          </link>
          <link>
            <linkclipref>HOTTR2_D_2D_HD_LB185_XVYCC_2398_TXT_ENG_ENG_51 3</linkclipref>
            <mediatype>audio</mediatype>
            <trackindex>6</trackindex>
            <clipindex>1</clipindex>
          </link>
          <link>
            <linkclipref>HOTTR2_D_2D_HD_LB185_XVYCC_2398_TXT_ENG_ENG_51 4</linkclipref>
            <mediatype>audio</mediatype>
            <trackindex>7</trackindex>
            <clipindex>1</clipindex>
          </link>
          <link>
            <linkclipref>HOTTR2_D_2D_HD_LB185_XVYCC_2398_TXT_ENG_ENG_51 5</linkclipref>
            <mediatype>audio</mediatype>
            <trackindex>8</trackindex>
            <clipindex>1</clipindex>
          </link>
          <link>
            <linkclipref>HOTTR2_D_2D_HD_LB185_XVYCC_2398_TXT_ENG_ENG_51 6</linkclipref>
            <mediatype>audio</mediatype>
            <trackindex>9</trackindex>
            <clipindex>1</clipindex>
          </link>
          <link>
            <linkclipref>HOTTR2_D_2D_HD_LB185_XVYCC_2398_TXT_ENG_ENG_51 7</linkclipref>
            <mediatype>audio</mediatype>
            <trackindex>10</trackindex>
            <clipindex>1</clipindex>
          </link>
          <itemhistory>
            <uuid>625D684E-AA11-4EB3-ADE4-41DE9C54917E</uuid>
          </itemhistory>
        </clipitem>
        <clipitem id="HOTTR2_D_2D_HD_LB185_XVYCC_2398_TXT_ENG_ENG_51_002.mxf4">
          <name>HOTTR2_D_2D_HD_LB185_XVYCC_2398_TXT_ENG_ENG_51_002.mxf</name>
          <duration>120</duration>
          <rate>
            <ntsc>TRUE</ntsc>
            <timebase>24</timebase>
          </rate>
          <in>0</in>
          <out>120</out>
          <start>128281</start>
          <end>128401</end>
          <masterclipid>HOTTR2_D_2D_HD_LB185_XVYCC_2398_TXT_ENG_ENG_51_002.mxf1</masterclipid>
          <logginginfo>
            <scene/>
            <shottake/>
            <lognote/>
            <good>FALSE</good>
          </logginginfo>
          <labels>
            <label2/>
          </labels>
          <comments>
            <mastercomment1/>
            <mastercomment2/>
            <mastercomment3/>
            <mastercomment4/>
          </comments>
          <file id="HOTTR2_D_2D_HD_LB185_XVYCC_2398_TXT_ENG_ENG_51_002 "/>
          <filter>
            <effect>
              <name>Audio Levels</name>
              <effectid>audiolevels</effectid>
              <effectcategory>audiolevels</effectcategory>
              <effecttype>audiolevels</effecttype>
              <mediatype>audio</mediatype>
              <parameter>
                <name>Level</name>
                <parameterid>level</parameterid>
                <valuemin>0</valuemin>
                <valuemax>3.98109</valuemax>
                <value>1</value>
              </parameter>
            </effect>
          </filter>
          <filter>
            <effect>
              <name>Audio Pan</name>
              <effectid>audiopan</effectid>
              <effectcategory>audiopan</effectcategory>
              <effecttype>audiopan</effecttype>
              <mediatype>audio</mediatype>
              <parameter>
                <name>Pan</name>
                <parameterid>pan</parameterid>
                <valuemin>-1</valuemin>
                <valuemax>1</valuemax>
                <value>0</value>
              </parameter>
            </effect>
          </filter>
          <sourcetrack>
            <mediatype>audio</mediatype>
            <trackindex>4</trackindex>
          </sourcetrack>
          <link>
            <linkclipref>HOTTR2_D_2D_HD_LB185_XVYCC_2398_TXT_ENG_ENG_51_002.mxf</linkclipref>
            <mediatype>audio</mediatype>
            <trackindex>5</trackindex>
            <clipindex>2</clipindex>
          </link>
          <link>
            <linkclipref>HOTTR2_D_2D_HD_LB185_XVYCC_2398_TXT_ENG_ENG_51_002.mxf2</linkclipref>
            <mediatype>audio</mediatype>
            <trackindex>6</trackindex>
            <clipindex>2</clipindex>
          </link>
          <link>
            <linkclipref>HOTTR2_D_2D_HD_LB185_XVYCC_2398_TXT_ENG_ENG_51_002.mxf3</linkclipref>
            <mediatype>audio</mediatype>
            <trackindex>7</trackindex>
            <clipindex>2</clipindex>
          </link>
          <link>
            <linkclipref>HOTTR2_D_2D_HD_LB185_XVYCC_2398_TXT_ENG_ENG_51_002.mxf4</linkclipref>
            <mediatype>audio</mediatype>
            <trackindex>8</trackindex>
            <clipindex>2</clipindex>
          </link>
          <link>
            <linkclipref>HOTTR2_D_2D_HD_LB185_XVYCC_2398_TXT_ENG_ENG_51_002.mxf5</linkclipref>
            <mediatype>audio</mediatype>
            <trackindex>9</trackindex>
            <clipindex>2</clipindex>
          </link>
          <link>
            <linkclipref>HOTTR2_D_2D_HD_LB185_XVYCC_2398_TXT_ENG_ENG_51_002.mxf6</linkclipref>
            <mediatype>audio</mediatype>
            <trackindex>10</trackindex>
            <clipindex>2</clipindex>
          </link>
          <itemhistory>
            <uuid>5DCD0AC3-26C1-4EB6-8B87-2B163B60A382</uuid>
          </itemhistory>
        </clipitem>
        <clipitem id="HOTTR2_D_2D_HD_LB185_XVYCC_2398_TXT_ENG_ENG_51_003.mxf4">
          <name>HOTTR2_D_2D_HD_LB185_XVYCC_2398_TXT_ENG_ENG_51_003.mxf</name>
          <duration>8146</duration>
          <rate>
            <ntsc>TRUE</ntsc>
            <timebase>24</timebase>
          </rate>
          <in>0</in>
          <out>8146</out>
          <start>128401</start>
          <end>136547</end>
          <masterclipid>HOTTR2_D_2D_HD_LB185_XVYCC_2398_TXT_ENG_ENG_51_003.mxf1</masterclipid>
          <logginginfo>
            <scene/>
            <shottake/>
            <lognote/>
            <good>FALSE</good>
          </logginginfo>
          <labels>
            <label2/>
          </labels>
          <comments>
            <mastercomment1/>
            <mastercomment2/>
            <mastercomment3/>
            <mastercomment4/>
          </comments>
          <file id="HOTTR2_D_2D_HD_LB185_XVYCC_2398_TXT_ENG_ENG_51_003 "/>
          <filter>
            <effect>
              <name>Audio Levels</name>
              <effectid>audiolevels</effectid>
              <effectcategory>audiolevels</effectcategory>
              <effecttype>audiolevels</effecttype>
              <mediatype>audio</mediatype>
              <parameter>
                <name>Level</name>
                <parameterid>level</parameterid>
                <valuemin>0</valuemin>
                <valuemax>3.98109</valuemax>
                <value>1</value>
              </parameter>
            </effect>
          </filter>
          <filter>
            <effect>
              <name>Audio Pan</name>
              <effectid>audiopan</effectid>
              <effectcategory>audiopan</effectcategory>
              <effecttype>audiopan</effecttype>
              <mediatype>audio</mediatype>
              <parameter>
                <name>Pan</name>
                <parameterid>pan</parameterid>
                <valuemin>-1</valuemin>
                <valuemax>1</valuemax>
                <value>0</value>
              </parameter>
            </effect>
          </filter>
          <sourcetrack>
            <mediatype>audio</mediatype>
            <trackindex>4</trackindex>
          </sourcetrack>
          <link>
            <linkclipref>HOTTR2_D_2D_HD_LB185_XVYCC_2398_TXT_ENG_ENG_51_003.mxf</linkclipref>
            <mediatype>audio</mediatype>
            <trackindex>5</trackindex>
            <clipindex>3</clipindex>
          </link>
          <link>
            <linkclipref>HOTTR2_D_2D_HD_LB185_XVYCC_2398_TXT_ENG_ENG_51_003.mxf2</linkclipref>
            <mediatype>audio</mediatype>
            <trackindex>6</trackindex>
            <clipindex>3</clipindex>
          </link>
          <link>
            <linkclipref>HOTTR2_D_2D_HD_LB185_XVYCC_2398_TXT_ENG_ENG_51_003.mxf3</linkclipref>
            <mediatype>audio</mediatype>
            <trackindex>7</trackindex>
            <clipindex>3</clipindex>
          </link>
          <link>
            <linkclipref>HOTTR2_D_2D_HD_LB185_XVYCC_2398_TXT_ENG_ENG_51_003.mxf4</linkclipref>
            <mediatype>audio</mediatype>
            <trackindex>8</trackindex>
            <clipindex>3</clipindex>
          </link>
          <link>
            <linkclipref>HOTTR2_D_2D_HD_LB185_XVYCC_2398_TXT_ENG_ENG_51_003.mxf5</linkclipref>
            <mediatype>audio</mediatype>
            <trackindex>9</trackindex>
            <clipindex>3</clipindex>
          </link>
          <link>
            <linkclipref>HOTTR2_D_2D_HD_LB185_XVYCC_2398_TXT_ENG_ENG_51_003.mxf6</linkclipref>
            <mediatype>audio</mediatype>
            <trackindex>10</trackindex>
            <clipindex>3</clipindex>
          </link>
          <itemhistory>
            <uuid>08C4D511-22C3-4E3B-AB59-E26394DFF43F</uuid>
          </itemhistory>
        </clipitem>
        <enabled>TRUE</enabled>
        <locked>FALSE</locked>
        <outputchannelindex>8</outputchannelindex>
      </track>
      <track>
        <clipitem id="HOTTR2_D_2D_HD_LB185_XVYCC_2398_TXT_ENG_ENG_51 6">
          <name>HOTTR2_D_2D_HD_LB185_XVYCC_2398_TXT_ENG_ENG_51</name>
          <duration>128305</duration>
          <rate>
            <ntsc>TRUE</ntsc>
            <timebase>24</timebase>
          </rate>
          <in>0</in>
          <out>128281</out>
          <start>0</start>
          <end>128281</end>
          <masterclipid>HOTTR2_D_2D_HD_LB185_XVYCC_2398_TXT_ENG_ENG_51 1</masterclipid>
          <logginginfo>
            <good>FALSE</good>
          </logginginfo>
          <file id="HOTTR2_D_2D_HD_LB185_XVYCC_2398_TXT_ENG_ENG_51 2"/>
          <filter>
            <effect>
              <name>Audio Levels</name>
              <effectid>audiolevels</effectid>
              <effectcategory>audiolevels</effectcategory>
              <effecttype>audiolevels</effecttype>
              <mediatype>audio</mediatype>
              <parameter>
                <name>Level</name>
                <parameterid>level</parameterid>
                <valuemin>0</valuemin>
                <valuemax>3.98109</valuemax>
                <value>1</value>
              </parameter>
            </effect>
          </filter>
          <filter>
            <effect>
              <name>Audio Pan</name>
              <effectid>audiopan</effectid>
              <effectcategory>audiopan</effectcategory>
              <effecttype>audiopan</effecttype>
              <mediatype>audio</mediatype>
              <parameter>
                <name>Pan</name>
                <parameterid>pan</parameterid>
                <valuemin>-1</valuemin>
                <valuemax>1</valuemax>
                <value>0</value>
              </parameter>
            </effect>
          </filter>
          <sourcetrack>
            <mediatype>audio</mediatype>
            <trackindex>5</trackindex>
          </sourcetrack>
          <link>
            <linkclipref>HOTTR2_D_2D_HD_LB185_XVYCC_2398_TXT_ENG_ENG_51 </linkclipref>
            <mediatype>audio</mediatype>
            <trackindex>5</trackindex>
            <clipindex>1</clipindex>
          </link>
          <link>
            <linkclipref>HOTTR2_D_2D_HD_LB185_XVYCC_2398_TXT_ENG_ENG_51 3</linkclipref>
            <mediatype>audio</mediatype>
            <trackindex>6</trackindex>
            <clipindex>1</clipindex>
          </link>
          <link>
            <linkclipref>HOTTR2_D_2D_HD_LB185_XVYCC_2398_TXT_ENG_ENG_51 4</linkclipref>
            <mediatype>audio</mediatype>
            <trackindex>7</trackindex>
            <clipindex>1</clipindex>
          </link>
          <link>
            <linkclipref>HOTTR2_D_2D_HD_LB185_XVYCC_2398_TXT_ENG_ENG_51 5</linkclipref>
            <mediatype>audio</mediatype>
            <trackindex>8</trackindex>
            <clipindex>1</clipindex>
          </link>
          <link>
            <linkclipref>HOTTR2_D_2D_HD_LB185_XVYCC_2398_TXT_ENG_ENG_51 6</linkclipref>
            <mediatype>audio</mediatype>
            <trackindex>9</trackindex>
            <clipindex>1</clipindex>
          </link>
          <link>
            <linkclipref>HOTTR2_D_2D_HD_LB185_XVYCC_2398_TXT_ENG_ENG_51 7</linkclipref>
            <mediatype>audio</mediatype>
            <trackindex>10</trackindex>
            <clipindex>1</clipindex>
          </link>
          <itemhistory>
            <uuid>6EF8AA7C-6C6F-4531-AE5F-52AC2245F3DB</uuid>
          </itemhistory>
        </clipitem>
        <clipitem id="HOTTR2_D_2D_HD_LB185_XVYCC_2398_TXT_ENG_ENG_51_002.mxf5">
          <name>HOTTR2_D_2D_HD_LB185_XVYCC_2398_TXT_ENG_ENG_51_002.mxf</name>
          <duration>120</duration>
          <rate>
            <ntsc>TRUE</ntsc>
            <timebase>24</timebase>
          </rate>
          <in>0</in>
          <out>120</out>
          <start>128281</start>
          <end>128401</end>
          <masterclipid>HOTTR2_D_2D_HD_LB185_XVYCC_2398_TXT_ENG_ENG_51_002.mxf1</masterclipid>
          <logginginfo>
            <scene/>
            <shottake/>
            <lognote/>
            <good>FALSE</good>
          </logginginfo>
          <labels>
            <label2/>
          </labels>
          <comments>
            <mastercomment1/>
            <mastercomment2/>
            <mastercomment3/>
            <mastercomment4/>
          </comments>
          <file id="HOTTR2_D_2D_HD_LB185_XVYCC_2398_TXT_ENG_ENG_51_002 "/>
          <filter>
            <effect>
              <name>Audio Levels</name>
              <effectid>audiolevels</effectid>
              <effectcategory>audiolevels</effectcategory>
              <effecttype>audiolevels</effecttype>
              <mediatype>audio</mediatype>
              <parameter>
                <name>Level</name>
                <parameterid>level</parameterid>
                <valuemin>0</valuemin>
                <valuemax>3.98109</valuemax>
                <value>1</value>
              </parameter>
            </effect>
          </filter>
          <filter>
            <effect>
              <name>Audio Pan</name>
              <effectid>audiopan</effectid>
              <effectcategory>audiopan</effectcategory>
              <effecttype>audiopan</effecttype>
              <mediatype>audio</mediatype>
              <parameter>
                <name>Pan</name>
                <parameterid>pan</parameterid>
                <valuemin>-1</valuemin>
                <valuemax>1</valuemax>
                <value>0</value>
              </parameter>
            </effect>
          </filter>
          <sourcetrack>
            <mediatype>audio</mediatype>
            <trackindex>5</trackindex>
          </sourcetrack>
          <link>
            <linkclipref>HOTTR2_D_2D_HD_LB185_XVYCC_2398_TXT_ENG_ENG_51_002.mxf</linkclipref>
            <mediatype>audio</mediatype>
            <trackindex>5</trackindex>
            <clipindex>2</clipindex>
          </link>
          <link>
            <linkclipref>HOTTR2_D_2D_HD_LB185_XVYCC_2398_TXT_ENG_ENG_51_002.mxf2</linkclipref>
            <mediatype>audio</mediatype>
            <trackindex>6</trackindex>
            <clipindex>2</clipindex>
          </link>
          <link>
            <linkclipref>HOTTR2_D_2D_HD_LB185_XVYCC_2398_TXT_ENG_ENG_51_002.mxf3</linkclipref>
            <mediatype>audio</mediatype>
            <trackindex>7</trackindex>
            <clipindex>2</clipindex>
          </link>
          <link>
            <linkclipref>HOTTR2_D_2D_HD_LB185_XVYCC_2398_TXT_ENG_ENG_51_002.mxf4</linkclipref>
            <mediatype>audio</mediatype>
            <trackindex>8</trackindex>
            <clipindex>2</clipindex>
          </link>
          <link>
            <linkclipref>HOTTR2_D_2D_HD_LB185_XVYCC_2398_TXT_ENG_ENG_51_002.mxf5</linkclipref>
            <mediatype>audio</mediatype>
            <trackindex>9</trackindex>
            <clipindex>2</clipindex>
          </link>
          <link>
            <linkclipref>HOTTR2_D_2D_HD_LB185_XVYCC_2398_TXT_ENG_ENG_51_002.mxf6</linkclipref>
            <mediatype>audio</mediatype>
            <trackindex>10</trackindex>
            <clipindex>2</clipindex>
          </link>
          <itemhistory>
            <uuid>1FC7C715-71D8-44FD-8B7A-CF5ABF6573AF</uuid>
          </itemhistory>
        </clipitem>
        <clipitem id="HOTTR2_D_2D_HD_LB185_XVYCC_2398_TXT_ENG_ENG_51_003.mxf5">
          <name>HOTTR2_D_2D_HD_LB185_XVYCC_2398_TXT_ENG_ENG_51_003.mxf</name>
          <duration>8146</duration>
          <rate>
            <ntsc>TRUE</ntsc>
            <timebase>24</timebase>
          </rate>
          <in>0</in>
          <out>8146</out>
          <start>128401</start>
          <end>136547</end>
          <masterclipid>HOTTR2_D_2D_HD_LB185_XVYCC_2398_TXT_ENG_ENG_51_003.mxf1</masterclipid>
          <logginginfo>
            <scene/>
            <shottake/>
            <lognote/>
            <good>FALSE</good>
          </logginginfo>
          <labels>
            <label2/>
          </labels>
          <comments>
            <mastercomment1/>
            <mastercomment2/>
            <mastercomment3/>
            <mastercomment4/>
          </comments>
          <file id="HOTTR2_D_2D_HD_LB185_XVYCC_2398_TXT_ENG_ENG_51_003 "/>
          <filter>
            <effect>
              <name>Audio Levels</name>
              <effectid>audiolevels</effectid>
              <effectcategory>audiolevels</effectcategory>
              <effecttype>audiolevels</effecttype>
              <mediatype>audio</mediatype>
              <parameter>
                <name>Level</name>
                <parameterid>level</parameterid>
                <valuemin>0</valuemin>
                <valuemax>3.98109</valuemax>
                <value>1</value>
              </parameter>
            </effect>
          </filter>
          <filter>
            <effect>
              <name>Audio Pan</name>
              <effectid>audiopan</effectid>
              <effectcategory>audiopan</effectcategory>
              <effecttype>audiopan</effecttype>
              <mediatype>audio</mediatype>
              <parameter>
                <name>Pan</name>
                <parameterid>pan</parameterid>
                <valuemin>-1</valuemin>
                <valuemax>1</valuemax>
                <value>0</value>
              </parameter>
            </effect>
          </filter>
          <sourcetrack>
            <mediatype>audio</mediatype>
            <trackindex>5</trackindex>
          </sourcetrack>
          <link>
            <linkclipref>HOTTR2_D_2D_HD_LB185_XVYCC_2398_TXT_ENG_ENG_51_003.mxf</linkclipref>
            <mediatype>audio</mediatype>
            <trackindex>5</trackindex>
            <clipindex>3</clipindex>
          </link>
          <link>
            <linkclipref>HOTTR2_D_2D_HD_LB185_XVYCC_2398_TXT_ENG_ENG_51_003.mxf2</linkclipref>
            <mediatype>audio</mediatype>
            <trackindex>6</trackindex>
            <clipindex>3</clipindex>
          </link>
          <link>
            <linkclipref>HOTTR2_D_2D_HD_LB185_XVYCC_2398_TXT_ENG_ENG_51_003.mxf3</linkclipref>
            <mediatype>audio</mediatype>
            <trackindex>7</trackindex>
            <clipindex>3</clipindex>
          </link>
          <link>
            <linkclipref>HOTTR2_D_2D_HD_LB185_XVYCC_2398_TXT_ENG_ENG_51_003.mxf4</linkclipref>
            <mediatype>audio</mediatype>
            <trackindex>8</trackindex>
            <clipindex>3</clipindex>
          </link>
          <link>
            <linkclipref>HOTTR2_D_2D_HD_LB185_XVYCC_2398_TXT_ENG_ENG_51_003.mxf5</linkclipref>
            <mediatype>audio</mediatype>
            <trackindex>9</trackindex>
            <clipindex>3</clipindex>
          </link>
          <link>
            <linkclipref>HOTTR2_D_2D_HD_LB185_XVYCC_2398_TXT_ENG_ENG_51_003.mxf6</linkclipref>
            <mediatype>audio</mediatype>
            <trackindex>10</trackindex>
            <clipindex>3</clipindex>
          </link>
          <itemhistory>
            <uuid>006993FD-24E1-47C4-8C62-6ECF757A5B71</uuid>
          </itemhistory>
        </clipitem>
        <enabled>TRUE</enabled>
        <locked>FALSE</locked>
        <outputchannelindex>9</outputchannelindex>
      </track>
      <track>
        <clipitem id="HOTTR2_D_2D_HD_LB185_XVYCC_2398_TXT_ENG_ENG_51 7">
          <name>HOTTR2_D_2D_HD_LB185_XVYCC_2398_TXT_ENG_ENG_51</name>
          <duration>128305</duration>
          <rate>
            <ntsc>TRUE</ntsc>
            <timebase>24</timebase>
          </rate>
          <in>0</in>
          <out>128281</out>
          <start>0</start>
          <end>128281</end>
          <masterclipid>HOTTR2_D_2D_HD_LB185_XVYCC_2398_TXT_ENG_ENG_51 1</masterclipid>
          <logginginfo>
            <good>FALSE</good>
          </logginginfo>
          <file id="HOTTR2_D_2D_HD_LB185_XVYCC_2398_TXT_ENG_ENG_51 2"/>
          <filter>
            <effect>
              <name>Audio Levels</name>
              <effectid>audiolevels</effectid>
              <effectcategory>audiolevels</effectcategory>
              <effecttype>audiolevels</effecttype>
              <mediatype>audio</mediatype>
              <parameter>
                <name>Level</name>
                <parameterid>level</parameterid>
                <valuemin>0</valuemin>
                <valuemax>3.98109</valuemax>
                <value>1</value>
              </parameter>
            </effect>
          </filter>
          <filter>
            <effect>
              <name>Audio Pan</name>
              <effectid>audiopan</effectid>
              <effectcategory>audiopan</effectcategory>
              <effecttype>audiopan</effecttype>
              <mediatype>audio</mediatype>
              <parameter>
                <name>Pan</name>
                <parameterid>pan</parameterid>
                <valuemin>-1</valuemin>
                <valuemax>1</valuemax>
                <value>0</value>
              </parameter>
            </effect>
          </filter>
          <sourcetrack>
            <mediatype>audio</mediatype>
            <trackindex>6</trackindex>
          </sourcetrack>
          <link>
            <linkclipref>HOTTR2_D_2D_HD_LB185_XVYCC_2398_TXT_ENG_ENG_51 </linkclipref>
            <mediatype>audio</mediatype>
            <trackindex>5</trackindex>
            <clipindex>1</clipindex>
          </link>
          <link>
            <linkclipref>HOTTR2_D_2D_HD_LB185_XVYCC_2398_TXT_ENG_ENG_51 3</linkclipref>
            <mediatype>audio</mediatype>
            <trackindex>6</trackindex>
            <clipindex>1</clipindex>
          </link>
          <link>
            <linkclipref>HOTTR2_D_2D_HD_LB185_XVYCC_2398_TXT_ENG_ENG_51 4</linkclipref>
            <mediatype>audio</mediatype>
            <trackindex>7</trackindex>
            <clipindex>1</clipindex>
          </link>
          <link>
            <linkclipref>HOTTR2_D_2D_HD_LB185_XVYCC_2398_TXT_ENG_ENG_51 5</linkclipref>
            <mediatype>audio</mediatype>
            <trackindex>8</trackindex>
            <clipindex>1</clipindex>
          </link>
          <link>
            <linkclipref>HOTTR2_D_2D_HD_LB185_XVYCC_2398_TXT_ENG_ENG_51 6</linkclipref>
            <mediatype>audio</mediatype>
            <trackindex>9</trackindex>
            <clipindex>1</clipindex>
          </link>
          <link>
            <linkclipref>HOTTR2_D_2D_HD_LB185_XVYCC_2398_TXT_ENG_ENG_51 7</linkclipref>
            <mediatype>audio</mediatype>
            <trackindex>10</trackindex>
            <clipindex>1</clipindex>
          </link>
          <itemhistory>
            <uuid>ADF4E6A9-1256-4269-AD21-69DDB93304EF</uuid>
          </itemhistory>
        </clipitem>
        <clipitem id="HOTTR2_D_2D_HD_LB185_XVYCC_2398_TXT_ENG_ENG_51_002.mxf6">
          <name>HOTTR2_D_2D_HD_LB185_XVYCC_2398_TXT_ENG_ENG_51_002.mxf</name>
          <duration>120</duration>
          <rate>
            <ntsc>TRUE</ntsc>
            <timebase>24</timebase>
          </rate>
          <in>0</in>
          <out>120</out>
          <start>128281</start>
          <end>128401</end>
          <masterclipid>HOTTR2_D_2D_HD_LB185_XVYCC_2398_TXT_ENG_ENG_51_002.mxf1</masterclipid>
          <logginginfo>
            <scene/>
            <shottake/>
            <lognote/>
            <good>FALSE</good>
          </logginginfo>
          <labels>
            <label2/>
          </labels>
          <comments>
            <mastercomment1/>
            <mastercomment2/>
            <mastercomment3/>
            <mastercomment4/>
          </comments>
          <file id="HOTTR2_D_2D_HD_LB185_XVYCC_2398_TXT_ENG_ENG_51_002 "/>
          <filter>
            <effect>
              <name>Audio Levels</name>
              <effectid>audiolevels</effectid>
              <effectcategory>audiolevels</effectcategory>
              <effecttype>audiolevels</effecttype>
              <mediatype>audio</mediatype>
              <parameter>
                <name>Level</name>
                <parameterid>level</parameterid>
                <valuemin>0</valuemin>
                <valuemax>3.98109</valuemax>
                <value>1</value>
              </parameter>
            </effect>
          </filter>
          <filter>
            <effect>
              <name>Audio Pan</name>
              <effectid>audiopan</effectid>
              <effectcategory>audiopan</effectcategory>
              <effecttype>audiopan</effecttype>
              <mediatype>audio</mediatype>
              <parameter>
                <name>Pan</name>
                <parameterid>pan</parameterid>
                <valuemin>-1</valuemin>
                <valuemax>1</valuemax>
                <value>0</value>
              </parameter>
            </effect>
          </filter>
          <sourcetrack>
            <mediatype>audio</mediatype>
            <trackindex>6</trackindex>
          </sourcetrack>
          <link>
            <linkclipref>HOTTR2_D_2D_HD_LB185_XVYCC_2398_TXT_ENG_ENG_51_002.mxf</linkclipref>
            <mediatype>audio</mediatype>
            <trackindex>5</trackindex>
            <clipindex>2</clipindex>
          </link>
          <link>
            <linkclipref>HOTTR2_D_2D_HD_LB185_XVYCC_2398_TXT_ENG_ENG_51_002.mxf2</linkclipref>
            <mediatype>audio</mediatype>
            <trackindex>6</trackindex>
            <clipindex>2</clipindex>
          </link>
          <link>
            <linkclipref>HOTTR2_D_2D_HD_LB185_XVYCC_2398_TXT_ENG_ENG_51_002.mxf3</linkclipref>
            <mediatype>audio</mediatype>
            <trackindex>7</trackindex>
            <clipindex>2</clipindex>
          </link>
          <link>
            <linkclipref>HOTTR2_D_2D_HD_LB185_XVYCC_2398_TXT_ENG_ENG_51_002.mxf4</linkclipref>
            <mediatype>audio</mediatype>
            <trackindex>8</trackindex>
            <clipindex>2</clipindex>
          </link>
          <link>
            <linkclipref>HOTTR2_D_2D_HD_LB185_XVYCC_2398_TXT_ENG_ENG_51_002.mxf5</linkclipref>
            <mediatype>audio</mediatype>
            <trackindex>9</trackindex>
            <clipindex>2</clipindex>
          </link>
          <link>
            <linkclipref>HOTTR2_D_2D_HD_LB185_XVYCC_2398_TXT_ENG_ENG_51_002.mxf6</linkclipref>
            <mediatype>audio</mediatype>
            <trackindex>10</trackindex>
            <clipindex>2</clipindex>
          </link>
          <itemhistory>
            <uuid>2D9C2C42-A024-450D-9152-B85E472559F6</uuid>
          </itemhistory>
        </clipitem>
        <clipitem id="HOTTR2_D_2D_HD_LB185_XVYCC_2398_TXT_ENG_ENG_51_003.mxf6">
          <name>HOTTR2_D_2D_HD_LB185_XVYCC_2398_TXT_ENG_ENG_51_003.mxf</name>
          <duration>8146</duration>
          <rate>
            <ntsc>TRUE</ntsc>
            <timebase>24</timebase>
          </rate>
          <in>0</in>
          <out>8146</out>
          <start>128401</start>
          <end>136547</end>
          <masterclipid>HOTTR2_D_2D_HD_LB185_XVYCC_2398_TXT_ENG_ENG_51_003.mxf1</masterclipid>
          <logginginfo>
            <scene/>
            <shottake/>
            <lognote/>
            <good>FALSE</good>
          </logginginfo>
          <labels>
            <label2/>
          </labels>
          <comments>
            <mastercomment1/>
            <mastercomment2/>
            <mastercomment3/>
            <mastercomment4/>
          </comments>
          <file id="HOTTR2_D_2D_HD_LB185_XVYCC_2398_TXT_ENG_ENG_51_003 "/>
          <filter>
            <effect>
              <name>Audio Levels</name>
              <effectid>audiolevels</effectid>
              <effectcategory>audiolevels</effectcategory>
              <effecttype>audiolevels</effecttype>
              <mediatype>audio</mediatype>
              <parameter>
                <name>Level</name>
                <parameterid>level</parameterid>
                <valuemin>0</valuemin>
                <valuemax>3.98109</valuemax>
                <value>1</value>
              </parameter>
            </effect>
          </filter>
          <filter>
            <effect>
              <name>Audio Pan</name>
              <effectid>audiopan</effectid>
              <effectcategory>audiopan</effectcategory>
              <effecttype>audiopan</effecttype>
              <mediatype>audio</mediatype>
              <parameter>
                <name>Pan</name>
                <parameterid>pan</parameterid>
                <valuemin>-1</valuemin>
                <valuemax>1</valuemax>
                <value>0</value>
              </parameter>
            </effect>
          </filter>
          <sourcetrack>
            <mediatype>audio</mediatype>
            <trackindex>6</trackindex>
          </sourcetrack>
          <link>
            <linkclipref>HOTTR2_D_2D_HD_LB185_XVYCC_2398_TXT_ENG_ENG_51_003.mxf</linkclipref>
            <mediatype>audio</mediatype>
            <trackindex>5</trackindex>
            <clipindex>3</clipindex>
          </link>
          <link>
            <linkclipref>HOTTR2_D_2D_HD_LB185_XVYCC_2398_TXT_ENG_ENG_51_003.mxf2</linkclipref>
            <mediatype>audio</mediatype>
            <trackindex>6</trackindex>
            <clipindex>3</clipindex>
          </link>
          <link>
            <linkclipref>HOTTR2_D_2D_HD_LB185_XVYCC_2398_TXT_ENG_ENG_51_003.mxf3</linkclipref>
            <mediatype>audio</mediatype>
            <trackindex>7</trackindex>
            <clipindex>3</clipindex>
          </link>
          <link>
            <linkclipref>HOTTR2_D_2D_HD_LB185_XVYCC_2398_TXT_ENG_ENG_51_003.mxf4</linkclipref>
            <mediatype>audio</mediatype>
            <trackindex>8</trackindex>
            <clipindex>3</clipindex>
          </link>
          <link>
            <linkclipref>HOTTR2_D_2D_HD_LB185_XVYCC_2398_TXT_ENG_ENG_51_003.mxf5</linkclipref>
            <mediatype>audio</mediatype>
            <trackindex>9</trackindex>
            <clipindex>3</clipindex>
          </link>
          <link>
            <linkclipref>HOTTR2_D_2D_HD_LB185_XVYCC_2398_TXT_ENG_ENG_51_003.mxf6</linkclipref>
            <mediatype>audio</mediatype>
            <trackindex>10</trackindex>
            <clipindex>3</clipindex>
          </link>
          <itemhistory>
            <uuid>86A3C213-C8CC-427D-8C85-542B60C74A94</uuid>
          </itemhistory>
        </clipitem>
        <enabled>TRUE</enabled>
        <locked>FALSE</locked>
        <outputchannelindex>10</outputchannelindex>
      </track>
      <track>
        <clipitem id="HOTTR2_D_2D_HD_LB185_XVYCC_2398_TXT_ENG_OPME_AB.mxf">
          <name>HOTTR2_D_2D_HD_LB185_XVYCC_2398_TXT_ENG_OPME_AB.mxf</name>
          <duration>128281</duration>
          <rate>
            <ntsc>TRUE</ntsc>
            <timebase>24</timebase>
          </rate>
          <in>0</in>
          <out>128281</out>
          <start>0</start>
          <end>128281</end>
          <enabled>TRUE</enabled>
          <masterclipid>HOTTR2_D_2D_HD_LB185_XVYCC_2398_TXT_ENG_OPME_AB.mxf1</masterclipid>
          <logginginfo>
            <scene/>
            <shottake/>
            <lognote/>
            <good>FALSE</good>
          </logginginfo>
          <labels>
            <label2/>
          </labels>
          <comments>
            <mastercomment1/>
            <mastercomment2/>
            <mastercomment3/>
            <mastercomment4/>
          </comments>
          <file id="HOTTR2_D_2D_HD_LB185_XVYCC_2398_TXT_ENG_OPME_AB">
            <name>HOTTR2_D_2D_HD_LB185_XVYCC_2398_TXT_ENG_OPME_AB.mxf</name>
            <pathurl>file://localhost/Volumes/PURGATORY/Waystation/SPHE%20General/Audio/%20November%202015/Hotel%20Transylvania%202/China%20version/ENG/HOTTR2_D_2D_HD_LB185_XVYCC_2398_TXT_ENG_OPME_AB.mxf</pathurl>
            <rate>
              <timebase>24</timebase>
              <ntsc>TRUE</ntsc>
            </rate>
            <duration>128281</duration>
            <timecode>
              <rate>
                <timebase>24</timebase>
              </rate>
              <string>00:59:30:00</string>
              <frame>85680</frame>
              <displayformat>NDF</displayformat>
              <source>source</source>
              <reel>
                <name>0x060A2B340101010501010F2013000000E0F678397E4B4C0486275104B9CD8F6B</name>
              </reel>
            </timecode>
            <timecode>
              <rate>
                <timebase>24</timebase>
              </rate>
              <string>00:59:30:00</string>
              <frame>85680</frame>
              <displayformat>NDF</displayformat>
              <source>aux1</source>
              <reel>
                <name>0x060A2B340101010501010F2013000000E0F678397E4B4C0486275104B9CD8F6B</name>
              </reel>
            </timecode>
            <media>
              <audio>
                <samplecharacteristics>
                  <samplerate>48000</samplerate>
                  <depth>24</depth>
                </samplecharacteristics>
                <channelcount>2</channelcount>
              </audio>
            </media>
          </file>
          <filter>
            <effect>
              <name>Audio Levels</name>
              <effectid>audiolevels</effectid>
              <effectcategory>audiolevels</effectcategory>
              <effecttype>audiolevels</effecttype>
              <mediatype>audio</mediatype>
              <parameter>
                <name>Level</name>
                <parameterid>level</parameterid>
                <valuemin>0</valuemin>
                <valuemax>3.98109</valuemax>
                <value>1</value>
              </parameter>
            </effect>
          </filter>
          <filter>
            <effect>
              <name>Audio Pan</name>
              <effectid>audiopan</effectid>
              <effectcategory>audiopan</effectcategory>
              <effecttype>audiopan</effecttype>
              <mediatype>audio</mediatype>
              <parameter>
                <name>Pan</name>
                <parameterid>pan</parameterid>
                <valuemin>-1</valuemin>
                <valuemax>1</valuemax>
                <value>-1</value>
              </parameter>
            </effect>
          </filter>
          <sourcetrack>
            <mediatype>audio</mediatype>
            <trackindex>1</trackindex>
          </sourcetrack>
          <link>
            <linkclipref>HOTTR2_D_2D_HD_LB185_XVYCC_2398_TXT_ENG_OPME_AB.mxf</linkclipref>
            <mediatype>audio</mediatype>
            <trackindex>11</trackindex>
            <clipindex>1</clipindex>
            <groupindex>1</groupindex>
          </link>
          <link>
            <linkclipref>HOTTR2_D_2D_HD_LB185_XVYCC_2398_TXT_ENG_OPME_AB.mxf2</linkclipref>
            <mediatype>audio</mediatype>
            <trackindex>12</trackindex>
            <clipindex>1</clipindex>
            <groupindex>1</groupindex>
          </link>
          <itemhistory>
            <uuid>7DB6DE8A-176D-4CD0-9A43-F91EEF560F27</uuid>
          </itemhistory>
        </clipitem>
        <clipitem id="HOTTR2_D_2D_HD_LB185_XVYCC_2398_TXT_ENG_OPME_AB_002.mxf">
          <name>HOTTR2_D_2D_HD_LB185_XVYCC_2398_TXT_ENG_OPME_AB_002.mxf</name>
          <duration>120</duration>
          <rate>
            <ntsc>TRUE</ntsc>
            <timebase>24</timebase>
          </rate>
          <in>0</in>
          <out>120</out>
          <start>128281</start>
          <end>128401</end>
          <masterclipid>HOTTR2_D_2D_HD_LB185_XVYCC_2398_TXT_ENG_OPME_AB_002.mxf1</masterclipid>
          <logginginfo>
            <scene/>
            <shottake/>
            <lognote/>
            <good>FALSE</good>
          </logginginfo>
          <labels>
            <label2/>
          </labels>
          <comments>
            <mastercomment1/>
            <mastercomment2/>
            <mastercomment3/>
            <mastercomment4/>
          </comments>
          <file id="HOTTR2_D_2D_HD_LB185_XVYCC_2398_TXT_ENG_OPME_AB_002 ">
            <name>HOTTR2_D_2D_HD_LB185_XVYCC_2398_TXT_ENG_OPME_AB_002.mxf</name>
            <pathurl>file://localhost/Volumes/PURGATORY/Waystation/SPHE%20General/Audio/%20November%202015/Hotel%20Transylvania%202/China%20version/ENG/HOTTR2_D_2D_HD_LB185_XVYCC_2398_TXT_ENG_OPME_AB_002.mxf</pathurl>
            <rate>
              <timebase>24</timebase>
              <ntsc>TRUE</ntsc>
            </rate>
            <duration>120</duration>
            <timecode>
              <rate>
                <timebase>24</timebase>
              </rate>
              <string>02:28:35:01</string>
              <frame>213961</frame>
              <displayformat>NDF</displayformat>
              <source>source</source>
              <reel>
                <name>0x060A2B340101010501010F201300000096AEDD0AF0634FBC90E0F5717F172C7A</name>
              </reel>
            </timecode>
            <timecode>
              <rate>
                <timebase>24</timebase>
              </rate>
              <string>02:28:35:01</string>
              <frame>213961</frame>
              <displayformat>NDF</displayformat>
              <source>aux1</source>
              <reel>
                <name>0x060A2B340101010501010F201300000096AEDD0AF0634FBC90E0F5717F172C7A</name>
              </reel>
            </timecode>
            <media>
              <audio>
                <samplecharacteristics>
                  <samplerate>48000</samplerate>
                  <depth>24</depth>
                </samplecharacteristics>
                <channelcount>2</channelcount>
              </audio>
            </media>
          </file>
          <filter>
            <effect>
              <name>Audio Levels</name>
              <effectid>audiolevels</effectid>
              <effectcategory>audiolevels</effectcategory>
              <effecttype>audiolevels</effecttype>
              <mediatype>audio</mediatype>
              <parameter>
                <name>Level</name>
                <parameterid>level</parameterid>
                <valuemin>0</valuemin>
                <valuemax>3.98109</valuemax>
                <value>1</value>
              </parameter>
            </effect>
          </filter>
          <filter>
            <effect>
              <name>Audio Pan</name>
              <effectid>audiopan</effectid>
              <effectcategory>audiopan</effectcategory>
              <effecttype>audiopan</effecttype>
              <mediatype>audio</mediatype>
              <parameter>
                <name>Pan</name>
                <parameterid>pan</parameterid>
                <valuemin>-1</valuemin>
                <valuemax>1</valuemax>
                <value>-1</value>
              </parameter>
            </effect>
          </filter>
          <sourcetrack>
            <mediatype>audio</mediatype>
            <trackindex>1</trackindex>
          </sourcetrack>
          <link>
            <linkclipref>HOTTR2_D_2D_HD_LB185_XVYCC_2398_TXT_ENG_OPME_AB_002.mxf</linkclipref>
            <mediatype>audio</mediatype>
            <trackindex>11</trackindex>
            <clipindex>2</clipindex>
            <groupindex>1</groupindex>
          </link>
          <link>
            <linkclipref>HOTTR2_D_2D_HD_LB185_XVYCC_2398_TXT_ENG_OPME_AB_002.mxf2</linkclipref>
            <mediatype>audio</mediatype>
            <trackindex>12</trackindex>
            <clipindex>2</clipindex>
            <groupindex>1</groupindex>
          </link>
          <itemhistory>
            <uuid>70C732AC-0A70-43D9-94B2-11BBC582F251</uuid>
          </itemhistory>
        </clipitem>
        <clipitem id="HOTTR2_D_2D_HD_LB185_XVYCC_2398_TXT_ENG_OPME_AB_003.mxf">
          <name>HOTTR2_D_2D_HD_LB185_XVYCC_2398_TXT_ENG_OPME_AB_003.mxf</name>
          <duration>8146</duration>
          <rate>
            <ntsc>TRUE</ntsc>
            <timebase>24</timebase>
          </rate>
          <in>0</in>
          <out>8146</out>
          <start>128401</start>
          <end>136547</end>
          <masterclipid>HOTTR2_D_2D_HD_LB185_XVYCC_2398_TXT_ENG_OPME_AB_003.mxf1</masterclipid>
          <logginginfo>
            <scene/>
            <shottake/>
            <lognote/>
            <good>FALSE</good>
          </logginginfo>
          <labels>
            <label2/>
          </labels>
          <comments>
            <mastercomment1/>
            <mastercomment2/>
            <mastercomment3/>
            <mastercomment4/>
          </comments>
          <file id="HOTTR2_D_2D_HD_LB185_XVYCC_2398_TXT_ENG_OPME_AB_003 ">
            <name>HOTTR2_D_2D_HD_LB185_XVYCC_2398_TXT_ENG_OPME_AB_003.mxf</name>
            <pathurl>file://localhost/Volumes/PURGATORY/Waystation/SPHE%20General/Audio/%20November%202015/Hotel%20Transylvania%202/China%20version/ENG/HOTTR2_D_2D_HD_LB185_XVYCC_2398_TXT_ENG_OPME_AB_003.mxf</pathurl>
            <rate>
              <timebase>24</timebase>
              <ntsc>TRUE</ntsc>
            </rate>
            <duration>8146</duration>
            <timecode>
              <rate>
                <timebase>24</timebase>
              </rate>
              <string>02:28:40:01</string>
              <frame>214081</frame>
              <displayformat>NDF</displayformat>
              <source>source</source>
              <reel>
                <name>0x060A2B340101010501010F2013000000E0490FCC237743EABC64A2642A9C5C54</name>
              </reel>
            </timecode>
            <timecode>
              <rate>
                <timebase>24</timebase>
              </rate>
              <string>02:28:40:01</string>
              <frame>214081</frame>
              <displayformat>NDF</displayformat>
              <source>aux1</source>
              <reel>
                <name>0x060A2B340101010501010F2013000000E0490FCC237743EABC64A2642A9C5C54</name>
              </reel>
            </timecode>
            <media>
              <audio>
                <samplecharacteristics>
                  <samplerate>48000</samplerate>
                  <depth>24</depth>
                </samplecharacteristics>
                <channelcount>2</channelcount>
              </audio>
            </media>
          </file>
          <filter>
            <effect>
              <name>Audio Levels</name>
              <effectid>audiolevels</effectid>
              <effectcategory>audiolevels</effectcategory>
              <effecttype>audiolevels</effecttype>
              <mediatype>audio</mediatype>
              <parameter>
                <name>Level</name>
                <parameterid>level</parameterid>
                <valuemin>0</valuemin>
                <valuemax>3.98109</valuemax>
                <value>1</value>
              </parameter>
            </effect>
          </filter>
          <filter>
            <effect>
              <name>Audio Pan</name>
              <effectid>audiopan</effectid>
              <effectcategory>audiopan</effectcategory>
              <effecttype>audiopan</effecttype>
              <mediatype>audio</mediatype>
              <parameter>
                <name>Pan</name>
                <parameterid>pan</parameterid>
                <valuemin>-1</valuemin>
                <valuemax>1</valuemax>
                <value>-1</value>
              </parameter>
            </effect>
          </filter>
          <sourcetrack>
            <mediatype>audio</mediatype>
            <trackindex>1</trackindex>
          </sourcetrack>
          <link>
            <linkclipref>HOTTR2_D_2D_HD_LB185_XVYCC_2398_TXT_ENG_OPME_AB_003.mxf</linkclipref>
            <mediatype>audio</mediatype>
            <trackindex>11</trackindex>
            <clipindex>3</clipindex>
            <groupindex>1</groupindex>
          </link>
          <link>
            <linkclipref>HOTTR2_D_2D_HD_LB185_XVYCC_2398_TXT_ENG_OPME_AB_003.mxf2</linkclipref>
            <mediatype>audio</mediatype>
            <trackindex>12</trackindex>
            <clipindex>3</clipindex>
            <groupindex>1</groupindex>
          </link>
          <itemhistory>
            <uuid>D637D1FA-98AC-42C4-B8DD-F469313423A1</uuid>
          </itemhistory>
        </clipitem>
        <enabled>TRUE</enabled>
        <locked>FALSE</locked>
        <outputchannelindex>11</outputchannelindex>
      </track>
      <track>
        <clipitem id="HOTTR2_D_2D_HD_LB185_XVYCC_2398_TXT_ENG_OPME_AB.mxf2">
          <name>HOTTR2_D_2D_HD_LB185_XVYCC_2398_TXT_ENG_OPME_AB.mxf</name>
          <duration>128281</duration>
          <rate>
            <ntsc>TRUE</ntsc>
            <timebase>24</timebase>
          </rate>
          <in>0</in>
          <out>128281</out>
          <start>0</start>
          <end>128281</end>
          <enabled>TRUE</enabled>
          <masterclipid>HOTTR2_D_2D_HD_LB185_XVYCC_2398_TXT_ENG_OPME_AB.mxf1</masterclipid>
          <logginginfo>
            <scene/>
            <shottake/>
            <lognote/>
            <good>FALSE</good>
          </logginginfo>
          <labels>
            <label2/>
          </labels>
          <comments>
            <mastercomment1/>
            <mastercomment2/>
            <mastercomment3/>
            <mastercomment4/>
          </comments>
          <file id="HOTTR2_D_2D_HD_LB185_XVYCC_2398_TXT_ENG_OPME_AB"/>
          <filter>
            <effect>
              <name>Audio Levels</name>
              <effectid>audiolevels</effectid>
              <effectcategory>audiolevels</effectcategory>
              <effecttype>audiolevels</effecttype>
              <mediatype>audio</mediatype>
              <parameter>
                <name>Level</name>
                <parameterid>level</parameterid>
                <valuemin>0</valuemin>
                <valuemax>3.98109</valuemax>
                <value>1</value>
              </parameter>
            </effect>
          </filter>
          <filter>
            <effect>
              <name>Audio Pan</name>
              <effectid>audiopan</effectid>
              <effectcategory>audiopan</effectcategory>
              <effecttype>audiopan</effecttype>
              <mediatype>audio</mediatype>
              <parameter>
                <name>Pan</name>
                <parameterid>pan</parameterid>
                <valuemin>-1</valuemin>
                <valuemax>1</valuemax>
                <value>1</value>
              </parameter>
            </effect>
          </filter>
          <sourcetrack>
            <mediatype>audio</mediatype>
            <trackindex>2</trackindex>
          </sourcetrack>
          <link>
            <linkclipref>HOTTR2_D_2D_HD_LB185_XVYCC_2398_TXT_ENG_OPME_AB.mxf</linkclipref>
            <mediatype>audio</mediatype>
            <trackindex>11</trackindex>
            <clipindex>1</clipindex>
            <groupindex>1</groupindex>
          </link>
          <link>
            <linkclipref>HOTTR2_D_2D_HD_LB185_XVYCC_2398_TXT_ENG_OPME_AB.mxf2</linkclipref>
            <mediatype>audio</mediatype>
            <trackindex>12</trackindex>
            <clipindex>1</clipindex>
            <groupindex>1</groupindex>
          </link>
          <itemhistory>
            <uuid>013075CC-37B4-48CF-BF98-DDA28B6947AE</uuid>
          </itemhistory>
        </clipitem>
        <clipitem id="HOTTR2_D_2D_HD_LB185_XVYCC_2398_TXT_ENG_OPME_AB_002.mxf2">
          <name>HOTTR2_D_2D_HD_LB185_XVYCC_2398_TXT_ENG_OPME_AB_002.mxf</name>
          <duration>120</duration>
          <rate>
            <ntsc>TRUE</ntsc>
            <timebase>24</timebase>
          </rate>
          <in>0</in>
          <out>120</out>
          <start>128281</start>
          <end>128401</end>
          <masterclipid>HOTTR2_D_2D_HD_LB185_XVYCC_2398_TXT_ENG_OPME_AB_002.mxf1</masterclipid>
          <logginginfo>
            <scene/>
            <shottake/>
            <lognote/>
            <good>FALSE</good>
          </logginginfo>
          <labels>
            <label2/>
          </labels>
          <comments>
            <mastercomment1/>
            <mastercomment2/>
            <mastercomment3/>
            <mastercomment4/>
          </comments>
          <file id="HOTTR2_D_2D_HD_LB185_XVYCC_2398_TXT_ENG_OPME_AB_002 "/>
          <filter>
            <effect>
              <name>Audio Levels</name>
              <effectid>audiolevels</effectid>
              <effectcategory>audiolevels</effectcategory>
              <effecttype>audiolevels</effecttype>
              <mediatype>audio</mediatype>
              <parameter>
                <name>Level</name>
                <parameterid>level</parameterid>
                <valuemin>0</valuemin>
                <valuemax>3.98109</valuemax>
                <value>1</value>
              </parameter>
            </effect>
          </filter>
          <filter>
            <effect>
              <name>Audio Pan</name>
              <effectid>audiopan</effectid>
              <effectcategory>audiopan</effectcategory>
              <effecttype>audiopan</effecttype>
              <mediatype>audio</mediatype>
              <parameter>
                <name>Pan</name>
                <parameterid>pan</parameterid>
                <valuemin>-1</valuemin>
                <valuemax>1</valuemax>
                <value>1</value>
              </parameter>
            </effect>
          </filter>
          <sourcetrack>
            <mediatype>audio</mediatype>
            <trackindex>2</trackindex>
          </sourcetrack>
          <link>
            <linkclipref>HOTTR2_D_2D_HD_LB185_XVYCC_2398_TXT_ENG_OPME_AB_002.mxf</linkclipref>
            <mediatype>audio</mediatype>
            <trackindex>11</trackindex>
            <clipindex>2</clipindex>
            <groupindex>1</groupindex>
          </link>
          <link>
            <linkclipref>HOTTR2_D_2D_HD_LB185_XVYCC_2398_TXT_ENG_OPME_AB_002.mxf2</linkclipref>
            <mediatype>audio</mediatype>
            <trackindex>12</trackindex>
            <clipindex>2</clipindex>
            <groupindex>1</groupindex>
          </link>
          <itemhistory>
            <uuid>E0A74868-F2F0-4DBD-BDCA-74DBB40B14BF</uuid>
          </itemhistory>
        </clipitem>
        <clipitem id="HOTTR2_D_2D_HD_LB185_XVYCC_2398_TXT_ENG_OPME_AB_003.mxf2">
          <name>HOTTR2_D_2D_HD_LB185_XVYCC_2398_TXT_ENG_OPME_AB_003.mxf</name>
          <duration>8146</duration>
          <rate>
            <ntsc>TRUE</ntsc>
            <timebase>24</timebase>
          </rate>
          <in>0</in>
          <out>8146</out>
          <start>128401</start>
          <end>136547</end>
          <masterclipid>HOTTR2_D_2D_HD_LB185_XVYCC_2398_TXT_ENG_OPME_AB_003.mxf1</masterclipid>
          <logginginfo>
            <scene/>
            <shottake/>
            <lognote/>
            <good>FALSE</good>
          </logginginfo>
          <labels>
            <label2/>
          </labels>
          <comments>
            <mastercomment1/>
            <mastercomment2/>
            <mastercomment3/>
            <mastercomment4/>
          </comments>
          <file id="HOTTR2_D_2D_HD_LB185_XVYCC_2398_TXT_ENG_OPME_AB_003 "/>
          <filter>
            <effect>
              <name>Audio Levels</name>
              <effectid>audiolevels</effectid>
              <effectcategory>audiolevels</effectcategory>
              <effecttype>audiolevels</effecttype>
              <mediatype>audio</mediatype>
              <parameter>
                <name>Level</name>
                <parameterid>level</parameterid>
                <valuemin>0</valuemin>
                <valuemax>3.98109</valuemax>
                <value>1</value>
              </parameter>
            </effect>
          </filter>
          <filter>
            <effect>
              <name>Audio Pan</name>
              <effectid>audiopan</effectid>
              <effectcategory>audiopan</effectcategory>
              <effecttype>audiopan</effecttype>
              <mediatype>audio</mediatype>
              <parameter>
                <name>Pan</name>
                <parameterid>pan</parameterid>
                <valuemin>-1</valuemin>
                <valuemax>1</valuemax>
                <value>1</value>
              </parameter>
            </effect>
          </filter>
          <sourcetrack>
            <mediatype>audio</mediatype>
            <trackindex>2</trackindex>
          </sourcetrack>
          <link>
            <linkclipref>HOTTR2_D_2D_HD_LB185_XVYCC_2398_TXT_ENG_OPME_AB_003.mxf</linkclipref>
            <mediatype>audio</mediatype>
            <trackindex>11</trackindex>
            <clipindex>3</clipindex>
            <groupindex>1</groupindex>
          </link>
          <link>
            <linkclipref>HOTTR2_D_2D_HD_LB185_XVYCC_2398_TXT_ENG_OPME_AB_003.mxf2</linkclipref>
            <mediatype>audio</mediatype>
            <trackindex>12</trackindex>
            <clipindex>3</clipindex>
            <groupindex>1</groupindex>
          </link>
          <itemhistory>
            <uuid>69179E75-0789-4289-9584-C77ACF4F0814</uuid>
          </itemhistory>
        </clipitem>
        <enabled>TRUE</enabled>
        <locked>FALSE</locked>
        <outputchannelindex>11</outputchannelindex>
      </track>
      <filter>
        <effect>
          <name>Audio Levels</name>
          <effectid>audiolevels</effectid>
          <effectcategory>audiolevels</effectcategory>
          <effecttype>audiolevels</effecttype>
          <mediatype>audio</mediatype>
          <parameter>
            <name>Level</name>
            <parameterid>level</parameterid>
            <valuemin>0</valuemin>
            <valuemax>3.98109</valuemax>
            <value>1</value>
          </parameter>
        </effect>
      </filter>
    </audio>
  </media>
  <ismasterclip>FALSE</ismasterclip>
</sequence>
</xmeml>


